<?xml version="1.0" standalone="no"?>
<!DOCTYPE svg PUBLIC "-//W3C//DTD SVG 20010904//EN"
 "http://www.w3.org/TR/2001/REC-SVG-20010904/DTD/svg10.dtd">
<svg version="1.0" xmlns="http://www.w3.org/2000/svg"
 width="3264.000000pt" height="2448.000000pt" viewBox="0 0 3264.000000 2448.000000"
 preserveAspectRatio="xMidYMid meet">

<g transform="translate(0.000000,2448.000000) scale(0.100000,-0.100000)"
fill="#000000" stroke="none">
<path d="M15651 22729 c-275 -31 -649 -144 -915 -276 -340 -170 -736 -492
-833 -678 -29 -56 -57 -93 -93 -124 -91 -77 -260 -273 -342 -396 -89 -134
-217 -387 -273 -540 -47 -126 -79 -277 -101 -471 l-17 -151 -111 74 c-156 104
-296 173 -352 173 -105 0 -217 -111 -217 -215 0 -25 17 -83 47 -155 27 -63 70
-169 98 -235 63 -153 106 -314 87 -326 -36 -19 -338 -232 -459 -322 -329 -246
-542 -546 -742 -1047 -100 -249 -140 -397 -177 -655 -36 -249 -44 -437 -38
-929 7 -598 19 -741 83 -998 45 -180 112 -364 184 -513 68 -138 183 -298 218
-303 12 -2 22 -6 22 -9 0 -2 -15 -32 -34 -66 -40 -71 -151 -316 -256 -562 -40
-93 -77 -176 -82 -183 -6 -7 -30 -21 -55 -32 -38 -16 -48 -28 -73 -82 -43 -94
-56 -172 -42 -251 23 -125 24 -122 -81 -462 -122 -394 -180 -719 -194 -1080
-13 -349 75 -653 239 -831 l41 -44 -435 0 -434 0 -22 91 c-12 50 -36 124 -52
164 -43 102 -187 289 -838 1093 l-294 363 -29 652 c-28 621 -29 651 -12 661
33 18 73 64 73 84 0 32 -38 71 -83 83 -54 14 -686 2 -737 -15 -19 -6 -41 -23
-49 -38 -14 -25 -13 -29 17 -78 l32 -52 -12 -662 -13 -662 -99 -134 c-600
-813 -863 -1177 -918 -1271 -32 -53 -59 -141 -83 -266 l-7 -33 -302 0 c-189 0
-315 -4 -334 -11 -39 -13 -56 -52 -43 -97 13 -44 57 -119 77 -130 13 -7 12
-411 -11 -3838 -14 -2106 -28 -3838 -31 -3849 -3 -13 2 -27 13 -38 18 -15 626
-8 9728 123 5341 77 9759 140 9818 139 84 -1 112 2 124 13 13 14 10 452 -27
3771 l-41 3757 47 44 c44 43 46 48 41 86 -3 22 -18 57 -33 77 l-27 36 -1529
-4 -1529 -4 -30 90 c-60 178 -139 294 -217 314 -42 12 -320 31 -449 31 -79 0
-81 1 -91 28 -6 15 -87 231 -181 481 -95 249 -169 456 -166 460 4 3 581 10
1283 16 l1277 10 33 23 32 23 0 452 c0 249 -7 1287 -15 2307 -8 1020 -15 1878
-15 1907 0 95 220 86 -1944 78 l-1911 -8 -34 179 c-71 373 -145 633 -227 796
-51 102 -154 257 -297 448 -191 254 -340 413 -538 571 -155 125 -197 152 -224
147 -31 -6 -31 -2 0 123 37 143 104 320 195 509 94 196 120 267 120 331 0 75
-36 156 -100 221 -93 96 -156 99 -279 17 -84 -56 -373 -310 -447 -393 l-61
-69 -22 114 c-70 354 -141 578 -261 816 -167 334 -300 505 -494 637 -83 57
-149 91 -321 166 -129 56 -131 57 -241 166 -227 224 -509 387 -879 509 -333
110 -719 163 -974 134z m2054 -889 c3 -5 1 -10 -4 -10 -6 0 -11 5 -11 10 0 6
2 10 4 10 3 0 8 -4 11 -10z m-3921 -364 c-3 -9 -10 -13 -16 -10 -5 3 -4 12 3
20 15 18 22 13 13 -10z m5748 -874 c53 -35 107 -129 108 -188 0 -51 -72 -234
-92 -234 -4 0 -8 39 -8 88 0 71 4 92 20 112 20 26 27 60 11 60 -24 0 -201
-259 -313 -457 -115 -202 -148 -325 -148 -553 0 -298 -38 -469 -196 -893 -87
-231 -90 -259 -40 -312 l35 -36 -35 -68 c-61 -120 -68 -177 -69 -518 l0 -303
-176 0 -175 0 -48 170 c-57 201 -80 252 -133 305 l-40 39 63 121 c82 156 196
412 269 600 31 83 63 157 71 166 18 20 18 32 -7 109 -45 141 -63 474 -35 623
48 250 190 539 369 747 98 115 431 403 497 429 35 14 42 13 72 -7z m-6822
-390 c180 -90 348 -216 461 -345 66 -76 82 -102 108 -176 17 -47 41 -129 53
-181 21 -92 22 -114 23 -720 1 -541 3 -637 18 -717 23 -128 60 -237 104 -312
38 -65 164 -201 261 -282 l52 -44 -25 -99 c-14 -54 -25 -120 -25 -147 0 -59
30 -215 62 -325 l24 -81 -35 8 c-49 12 -154 11 -185 -1 -47 -18 -112 -88 -141
-152 -40 -89 -44 -167 -12 -246 30 -75 97 -182 115 -182 17 0 16 1 -23 68 -80
134 -90 215 -40 319 51 104 135 151 250 139 222 -23 381 -120 539 -329 53 -71
87 -100 72 -61 -6 15 0 16 40 10 26 -3 61 -7 78 -7 17 -1 3 -5 -31 -10 -34 -4
-73 -15 -87 -24 -31 -21 -32 -33 -11 -246 33 -325 40 -339 205 -372 203 -42
830 -22 907 28 21 14 22 14 28 -33 21 -151 78 -292 202 -497 33 -55 63 -112
66 -127 9 -35 69 -98 94 -98 11 0 37 12 59 26 30 20 46 25 75 21 51 -7 232
-94 325 -157 103 -68 144 -67 226 8 24 21 78 62 121 91 l77 52 0 -311 c0 -211
-3 -310 -11 -310 -5 0 -64 14 -130 30 l-119 30 -97 -41 c-189 -80 -356 -107
-445 -72 -154 60 -378 286 -518 522 -74 124 -193 442 -250 669 -10 37 -30 59
-30 31 0 -52 125 -485 179 -618 l22 -53 -48 27 c-96 55 -430 280 -523 351
-236 180 -550 566 -628 772 -52 136 -56 129 47 78 98 -50 111 -53 111 -31 0
26 -233 150 -334 177 -37 10 -56 10 -93 -1 -75 -19 -163 -62 -163 -79 0 -10 6
-12 23 -8 12 4 59 17 105 28 79 21 85 21 136 5 51 -17 53 -18 70 -74 63 -203
252 -485 481 -718 143 -145 320 -274 678 -491 164 -100 170 -104 221 -178 148
-216 301 -367 445 -439 81 -40 88 -42 175 -41 105 0 202 23 350 82 l98 40 121
-32 122 -32 0 -109 0 -110 -55 -7 c-30 -3 -136 -9 -235 -13 -343 -15 -544 25
-743 147 -78 48 -127 84 -357 269 -229 183 -283 220 -620 415 -341 197 -453
265 -635 387 -480 320 -722 585 -808 882 -78 271 -88 529 -41 1120 25 327 22
439 -16 543 l-26 73 41 45 c54 59 72 102 60 143 -10 37 -84 143 -130 186 -43
41 -123 184 -154 276 -46 138 -59 243 -61 514 -3 286 -5 294 -101 508 -56 122
-234 470 -259 504 -10 13 -17 15 -25 7 -9 -9 -6 -22 9 -53 18 -35 21 -51 15
-107 l-7 -67 -38 92 c-57 137 -60 152 -38 200 19 42 68 81 104 81 11 0 54 -17
95 -38z m-73 -294 c-3 -7 -5 -2 -5 12 0 14 2 19 5 13 2 -7 2 -19 0 -25z m5220
-135 c-3 -10 -5 -4 -5 12 0 17 2 24 5 18 2 -7 2 -21 0 -30z m-4047 -13 c0 -13
-1 -13 -10 0 -5 8 -10 22 -10 30 0 13 1 13 10 0 5 -8 10 -22 10 -30z m4795
-1050 c3 -5 1 -10 -4 -10 -6 0 -11 5 -11 10 0 6 2 10 4 10 3 0 8 -4 11 -10z
m-430 -980 c53 -37 83 -94 139 -270 26 -80 49 -151 51 -157 3 -10 -41 -13
-199 -13 l-204 0 -4 88 c-3 70 -9 96 -28 128 -32 54 -77 100 -112 115 l-29 12
73 39 c40 22 100 59 133 83 l60 43 40 -20 c22 -12 58 -33 80 -48z m-3955 -106
c0 -2 -9 0 -20 6 -11 6 -20 13 -20 16 0 2 9 0 20 -6 11 -6 20 -13 20 -16z m75
-163 c72 -39 136 -74 144 -79 11 -6 6 -13 -22 -30 -65 -38 -47 -65 44 -66 94
-2 150 -57 157 -153 3 -54 1 -61 -35 -110 -21 -28 -51 -56 -67 -62 -62 -23
-141 -8 -175 33 -8 9 -22 16 -32 16 -17 0 -19 -8 -19 -64 0 -145 51 -324 120
-420 57 -79 155 -116 310 -116 118 0 161 12 211 57 62 56 72 107 66 327 -5
191 -17 259 -66 355 -12 23 -21 44 -19 46 2 2 35 -4 73 -14 66 -18 70 -20 67
-45 -2 -14 6 -50 16 -79 11 -29 34 -103 52 -163 17 -60 35 -118 40 -129 18
-39 68 -331 58 -341 -17 -16 -244 -55 -381 -65 -164 -11 -217 -9 -367 16 -47
8 -99 16 -117 18 -26 3 -44 18 -96 83 -96 119 -169 181 -274 232 l-92 44 -11
52 c-16 78 -40 265 -40 318 0 69 25 189 53 250 14 29 36 79 51 111 14 32 37
72 51 89 14 16 25 35 25 43 0 8 30 -7 73 -35 39 -27 131 -80 202 -119z m-25
133 c0 -2 -9 0 -20 6 -11 6 -20 13 -20 16 0 2 9 0 20 -6 11 -6 20 -13 20 -16z
m90 -49 c0 -3 -18 4 -40 15 -22 11 -40 23 -40 25 0 3 18 -4 40 -15 22 -11 40
-23 40 -25z m3249 -44 c50 -35 74 -118 55 -188 l-6 -23 -245 0 -245 0 46 52
c25 29 46 58 46 64 0 6 51 30 113 53 61 23 126 48 142 56 33 15 58 12 94 -14z
m-2229 -790 c52 -11 111 -22 131 -25 28 -5 39 -14 52 -42 10 -19 36 -61 59
-92 l42 -56 -49 -91 c-27 -49 -63 -130 -81 -180 -18 -49 -33 -80 -34 -68 0 12
-9 47 -21 77 -33 90 -95 120 -268 133 l-96 7 55 14 c86 22 84 15 77 195 l-5
159 21 -6 c12 -3 65 -15 117 -25z m5413 -302 c23 -12 37 -28 37 -42 0 -4 -9
-3 -21 3 -11 6 -38 12 -60 12 -21 0 -39 4 -39 8 0 7 33 23 58 29 2 1 13 -4 25
-10z m-226 -24 c9 -25 -2 -27 -22 -5 -17 18 -17 20 -1 20 9 0 19 -7 23 -15z
m224 -35 c42 -23 65 -122 39 -171 -7 -13 -7 -19 0 -19 20 0 50 -40 50 -67 0
-15 -11 -39 -26 -54 -25 -26 -26 -33 -28 -148 l-1 -120 -29 31 c-17 16 -48 39
-70 50 l-41 20 47 -44 c91 -85 118 -217 68 -323 -13 -27 -26 -54 -28 -60 -3
-5 5 -1 18 10 40 36 64 95 64 162 1 35 4 63 8 63 19 0 168 -273 168 -309 0
-44 -36 -38 -130 21 -19 13 -59 25 -90 29 -64 7 -97 -7 -125 -53 -12 -21 -22
-27 -33 -23 -50 21 -57 17 -25 -14 29 -28 31 -34 21 -62 -6 -17 -8 -54 -5 -82
4 -45 10 -56 47 -89 47 -42 105 -64 144 -54 30 7 69 69 91 144 9 28 21 54 27
58 6 4 38 8 72 9 75 2 97 -17 121 -99 11 -36 32 -74 61 -108 55 -65 58 -97 12
-140 -18 -17 -60 -43 -94 -58 -33 -15 -94 -57 -135 -92 -127 -111 -197 -132
-292 -88 -57 27 -81 72 -75 140 l5 48 -56 7 c-31 3 -79 13 -107 20 -43 12 -54
20 -64 47 -21 53 -90 168 -100 168 -6 0 -10 -27 -10 -60 0 -54 -2 -60 -20 -60
-30 0 -34 -23 -15 -75 13 -32 16 -60 12 -98 -6 -45 -12 -58 -51 -94 -34 -33
-53 -43 -78 -43 -41 0 -148 50 -203 94 -22 18 -76 51 -120 75 -99 53 -145 95
-145 133 0 52 25 94 71 119 32 17 51 38 69 73 14 27 34 53 45 57 45 17 63 9
133 -61 72 -72 95 -85 174 -100 55 -11 103 2 119 32 17 32 22 150 7 178 -18
34 -97 71 -166 79 l-57 6 -3 251 -2 252 147 6 c231 10 243 12 258 50 7 17 16
52 20 78 7 43 4 50 -29 94 -20 26 -36 52 -36 59 0 7 13 18 29 24 26 11 29 18
34 73 4 43 11 67 26 82 19 19 22 19 37 4 10 -9 20 -34 23 -54 6 -37 8 -38 49
-39 38 -1 42 1 42 22 0 31 25 79 47 92 23 13 59 14 84 1z m-5466 -36 c45 -11
68 -23 93 -49 39 -42 42 -65 7 -65 -45 0 -65 -32 -65 -102 0 -117 29 -168 94
-168 l29 0 -6 -82 c-4 -50 -12 -88 -21 -96 -28 -28 -217 -45 -521 -46 -249 -1
-301 2 -370 17 -132 31 -135 35 -159 227 -26 204 -30 314 -13 328 16 13 242
39 446 50 180 10 415 3 486 -14z m143 -165 c2 -10 -8 -21 -28 -29 -19 -8 -32
-22 -36 -39 -11 -48 -12 -46 -13 11 -1 44 3 59 17 67 24 15 56 9 60 -10z
m1110 -6 c168 -6 172 -7 172 -28 l0 -21 -352 4 c-351 4 -704 -8 -809 -28 -83
-17 -159 -23 -159 -13 1 28 26 37 161 54 286 36 606 47 987 32z m-1123 -131
c22 5 25 2 25 -23 0 -35 -29 -40 -60 -9 -24 24 -29 60 -5 40 8 -7 26 -10 40
-8z m-2133 -155 c25 -40 77 -107 115 -151 37 -43 71 -84 74 -90 11 -18 51
-157 47 -161 -4 -4 -91 95 -266 304 l-114 134 39 33 c33 29 39 31 48 18 6 -9
31 -48 57 -87z m3223 -539 c22 -6 75 -26 118 -45 l77 -36 0 -96 0 -96 -81 -49
c-44 -26 -108 -72 -141 -102 -78 -69 -94 -70 -187 -1 -81 60 -273 147 -339
155 -34 4 -50 0 -82 -22 -48 -32 -51 -32 -78 -3 -54 57 -45 95 40 174 100 91
172 120 329 132 118 9 284 4 344 -11z m-7554 -1207 c-38 -35 -37 30 -10 -639
15 -372 18 -546 11 -573 -7 -26 -7 -39 0 -39 6 0 7 -14 3 -37 -10 -45 -13
-386 -4 -371 4 5 6 -28 6 -74 0 -88 4 -134 27 -318 19 -149 36 -230 47 -230 5
0 9 -22 9 -50 0 -27 4 -50 9 -50 5 0 11 -18 15 -40 3 -23 10 -49 15 -58 10
-18 29 -81 51 -167 7 -27 17 -54 21 -59 5 -6 9 -18 9 -29 0 -10 9 -39 19 -65
11 -26 31 -76 45 -112 13 -36 34 -87 46 -113 12 -27 20 -50 18 -53 -9 -9 -328
-14 -1166 -19 l-884 -6 7 33 c18 91 38 158 60 203 28 56 273 401 635 890 134
182 280 379 324 440 l81 109 13 693 13 693 -21 30 -21 30 203 3 c112 1 259 3
327 5 l123 2 -31 -29z m7389 -1027 c0 -8 -5 -12 -10 -9 -6 4 -8 11 -5 16 9 14
15 11 15 -7z m-106 -18 c-7 -31 14 -45 32 -21 11 15 16 16 43 4 21 -10 31 -21
31 -36 l0 -23 -20 20 c-41 41 -80 16 -80 -53 0 -49 47 -88 74 -61 9 8 16 11
16 6 0 -5 -9 -17 -21 -28 -18 -17 -23 -17 -47 -4 -14 9 -29 26 -33 40 -9 32
-11 143 -3 164 9 24 15 19 8 -8z m66 -106 c0 -16 -4 -30 -10 -30 -5 0 -10 14
-10 30 0 17 5 30 10 30 6 0 10 -13 10 -30z m-4959 -166 c324 -121 438 -175
733 -348 251 -147 371 -201 531 -235 77 -17 80 -18 83 -48 l3 -30 -71 18
c-150 39 -289 54 -487 54 -175 0 -217 -4 -200 -21 3 -3 71 -10 150 -15 174
-10 304 -30 456 -69 132 -35 187 -58 319 -137 122 -73 159 -77 292 -34 52 17
115 42 139 56 49 29 58 27 40 -7 -30 -56 1 -313 39 -326 11 -3 12 7 5 54 -22
155 7 300 90 444 40 71 46 76 102 99 35 14 90 26 131 29 62 4 77 1 114 -19 52
-29 119 -127 166 -242 33 -81 67 -197 60 -204 -2 -2 -15 1 -30 7 -43 16 -125
12 -206 -11 -104 -28 -134 -50 -167 -116 -31 -65 -33 -111 -7 -207 29 -107 29
-103 -2 -110 -104 -27 -290 -144 -400 -254 l-78 -77 -936 -3 -937 -3 -70 69
c-39 38 -82 87 -96 109 -68 108 -129 310 -147 487 -16 155 4 416 55 731 28
174 96 435 114 435 5 0 100 -34 212 -76z m4973 -36 c12 -118 85 -690 106 -827
33 -215 84 -437 166 -730 43 -152 40 -183 -4 -40 -93 305 -143 519 -182 773
-47 302 -120 877 -114 887 13 22 22 4 28 -63z m-1274 -205 c43 -19 100 -73
100 -94 0 -5 -23 -9 -52 -9 -31 0 -68 -8 -92 -20 -51 -24 -163 -137 -209 -210
l-35 -55 27 -57 27 -56 -54 -7 -53 -7 -82 79 c-95 91 -152 133 -242 175 -36
16 -65 32 -65 34 0 2 42 40 93 84 155 136 254 172 467 167 100 -3 134 -7 170
-24z m4390 -86 c0 -25 -47 -158 -61 -173 -20 -21 -159 -315 -159 -335 0 -6
-18 5 -41 26 -50 45 -86 61 -161 70 -73 9 -129 -1 -173 -31 -41 -27 -43 -20
-16 57 20 60 141 370 148 382 4 6 463 11 463 4z m-621 -44 c-74 -124 -158
-240 -235 -325 -48 -54 -90 -98 -93 -98 -3 1 -21 21 -38 45 -55 74 -124 113
-235 130 -21 3 -38 8 -38 11 0 10 43 91 97 182 l55 92 255 0 255 0 -23 -37z
m-4424 -243 c91 -44 217 -143 287 -223 l47 -55 -46 14 c-98 29 -161 11 -254
-74 -63 -57 -92 -115 -87 -171 3 -33 1 -36 -37 -47 -22 -7 -63 -13 -92 -13
l-52 -1 -5 43 c-3 23 -7 81 -10 129 -6 97 -54 261 -106 355 -15 29 -25 55 -21
57 7 4 100 21 166 30 65 8 131 -6 210 -44z m1085 -620 c52 -18 98 -36 103 -39
4 -4 -2 -29 -14 -56 -30 -68 -23 -209 15 -310 43 -110 42 -105 8 -105 -25 0
-30 5 -35 29 -8 38 -134 310 -180 390 -28 47 -36 69 -31 89 9 37 14 44 27 38
7 -2 55 -19 107 -36z m-221 -94 c51 -74 201 -379 201 -408 0 -9 -107 -11 -171
-2 l-45 6 -18 212 c-9 116 -20 222 -23 236 -6 23 -5 24 11 11 10 -8 30 -33 45
-55z"/>
<path d="M15788 14888 c-17 -13 -38 -76 -38 -115 0 -56 70 -71 122 -25 38 34
42 79 11 120 -23 30 -69 40 -95 20z m66 -50 c20 -29 20 -34 -4 -58 -26 -26
-60 -26 -60 -1 0 32 21 81 35 81 8 0 21 -10 29 -22z"/>
<path d="M15590 14762 c-29 -24 -32 -88 -5 -108 43 -32 95 -1 97 58 2 64 -44
89 -92 50z m50 -46 c0 -28 -19 -44 -30 -26 -11 17 0 50 16 50 8 0 14 -10 14
-24z"/>
<path d="M15836 14524 c-22 -22 -21 -87 2 -107 30 -27 87 -22 111 9 27 34 26
46 -5 83 -29 35 -81 42 -108 15z m83 -42 c13 -25 -1 -44 -30 -40 -18 2 -25 10
-27 31 -3 23 0 27 22 27 14 0 30 -8 35 -18z"/>
<path d="M20712 16287 c-7 -8 -15 -27 -18 -44 -7 -34 10 -53 52 -56 22 -2 30
4 38 26 19 53 -40 113 -72 74z"/>
<path d="M20500 16271 c-12 -24 -13 -58 -1 -65 5 -4 21 -2 36 4 23 9 26 14 20
38 -11 43 -38 54 -55 23z"/>
<path d="M20248 15715 c-5 -6 1 -184 7 -203 3 -7 9 -10 15 -7 6 3 10 51 10
111 0 80 -3 104 -13 104 -8 0 -16 -2 -19 -5z"/>
<path d="M20870 15020 c0 -11 34 -70 40 -70 3 0 11 4 19 9 11 7 10 13 -3 34
-16 24 -56 44 -56 27z"/>
<path d="M8681 13338 c1 -293 4 -558 9 -588 5 -42 8 -21 9 93 l1 147 85 0 c50
0 85 4 85 10 0 6 -35 10 -85 10 l-85 0 0 180 0 180 84 0 c52 0 88 4 92 11 5 8
-18 10 -85 7 l-91 -4 0 237 c0 144 -4 240 -10 244 -6 4 -9 -183 -9 -527z"/>
<path d="M8735 12580 c-4 -6 22 -10 69 -10 44 0 76 4 76 10 0 6 -30 10 -69 10
-39 0 -73 -4 -76 -10z"/>
<path d="M8850 12220 l-35 -7 43 -2 c27 0 41 3 37 9 -3 6 -7 9 -8 9 -1 -1 -18
-5 -37 -9z"/>
</g>
</svg>
