<?xml version="1.0" standalone="no"?>
<!DOCTYPE svg PUBLIC "-//W3C//DTD SVG 20010904//EN"
 "http://www.w3.org/TR/2001/REC-SVG-20010904/DTD/svg10.dtd">
<svg version="1.0" xmlns="http://www.w3.org/2000/svg"
 width="185.000000pt" height="272.000000pt" viewBox="0 0 185.000000 272.000000"
 preserveAspectRatio="xMidYMid meet">

<g transform="translate(0.000000,272.000000) scale(0.100000,-0.100000)"
fill="#000000" stroke="none">
<path d="M600 2703 c-92 -47 -87 -180 7 -220 102 -42 202 58 160 160 -28 65
-104 93 -167 60z"/>
<path d="M820 2595 l0 -105 105 0 105 0 0 105 0 105 -105 0 -105 0 0 -105z"/>
<path d="M1090 2595 l0 -105 105 0 105 0 0 105 0 105 -105 0 -105 0 0 -105z"/>
<path d="M552 2323 l3 -108 100 0 100 0 3 108 3 107 -106 0 -106 0 3 -107z"/>
<path d="M822 2323 l3 -108 100 0 100 0 3 108 3 107 -106 0 -106 0 3 -107z"/>
<path d="M552 2053 l3 -108 100 0 100 0 3 108 3 107 -106 0 -106 0 3 -107z"/>
<path d="M822 2053 l3 -108 100 0 100 0 3 108 3 107 -106 0 -106 0 3 -107z"/>
<path d="M1092 2053 l3 -108 100 0 100 0 3 108 3 107 -106 0 -106 0 3 -107z"/>
<path d="M550 1780 l0 -110 105 0 105 0 0 110 0 110 -105 0 -105 0 0 -110z"/>
<path d="M820 1780 l0 -110 105 0 105 0 0 110 0 110 -105 0 -105 0 0 -110z"/>
<path d="M110 1400 l0 -110 25 0 25 0 0 110 0 110 -25 0 -25 0 0 -110z"/>
<path d="M220 1400 c0 -106 1 -110 21 -110 21 0 21 4 17 80 -3 44 -3 80 -2 80
2 0 24 -36 50 -80 41 -71 49 -80 75 -80 l29 0 0 110 c0 103 -1 110 -20 110
-18 0 -20 -7 -20 -82 l-1 -83 -47 82 c-41 72 -51 83 -74 83 l-28 0 0 -110z"/>
<path d="M474 1485 c-22 -34 -11 -71 29 -95 45 -27 59 -40 54 -53 -5 -16 -52
-21 -77 -7 -18 9 -20 8 -20 -14 0 -21 6 -26 34 -31 62 -12 106 15 106 65 0 29
-32 63 -71 75 -10 4 -19 15 -19 27 0 17 5 20 40 16 28 -2 41 1 45 11 8 20 -13
31 -62 31 -34 0 -46 -5 -59 -25z"/>
<path d="M620 1490 c0 -16 7 -20 35 -20 l35 0 0 -90 c0 -83 1 -90 20 -90 19 0
20 7 20 90 l0 90 30 0 c23 0 30 4 30 20 0 18 -7 20 -85 20 -78 0 -85 -2 -85
-20z"/>
<path d="M830 1400 c0 -103 1 -110 20 -110 19 0 20 7 20 110 0 103 -1 110 -20
110 -19 0 -20 -7 -20 -110z"/>
<path d="M910 1490 c0 -16 7 -20 30 -20 l30 0 0 -90 c0 -83 1 -90 20 -90 19 0
20 7 20 90 l0 90 35 0 c28 0 35 4 35 20 0 18 -7 20 -85 20 -78 0 -85 -2 -85
-20z"/>
<path d="M1110 1430 c0 -43 5 -90 11 -104 22 -47 108 -58 152 -19 14 13 17 33
17 110 0 86 -1 93 -20 93 -18 0 -20 -7 -20 -76 0 -86 -11 -114 -43 -114 -39 0
-47 19 -47 107 0 82 0 83 -25 83 -25 0 -25 -1 -25 -80z"/>
<path d="M1330 1490 c0 -16 7 -20 30 -20 l30 0 0 -90 c0 -89 0 -90 25 -90 25
0 25 1 25 90 l0 90 30 0 c23 0 30 4 30 20 0 18 -7 20 -85 20 -78 0 -85 -2 -85
-20z"/>
<path d="M1561 1493 c-45 -36 -45 -143 -1 -187 28 -28 109 -29 139 -2 48 43
47 157 -2 191 -30 21 -109 20 -136 -2z m115 -48 c20 -31 13 -94 -13 -112 -39
-29 -81 -6 -90 49 -8 51 16 88 57 88 21 0 35 -8 46 -25z"/>
<path d="M270 1130 c0 -102 1 -110 19 -110 16 0 20 8 23 43 3 41 4 42 41 45
53 5 51 32 -3 32 -38 0 -40 2 -40 30 0 28 2 30 40 30 33 0 40 3 40 20 0 18 -7
20 -60 20 l-60 0 0 -110z"/>
<path d="M440 1130 l0 -110 65 0 c51 0 65 3 65 15 0 11 -11 15 -40 15 -38 0
-40 2 -40 30 0 28 3 30 35 30 28 0 35 4 35 20 0 16 -7 20 -35 20 -31 0 -35 3
-35 25 0 23 4 25 40 25 33 0 40 3 40 20 0 18 -7 20 -65 20 l-65 0 0 -110z"/>
<path d="M620 1130 l0 -110 56 0 c30 0 64 5 75 10 25 14 49 62 49 100 0 72
-47 110 -136 110 l-44 0 0 -110z m112 53 c21 -19 24 -81 6 -106 -7 -9 -28 -20
-45 -23 l-33 -6 0 76 c0 76 0 76 27 76 14 0 35 -7 45 -17z"/>
<path d="M850 1130 l0 -110 65 0 c51 0 65 3 65 15 0 11 -11 15 -40 15 -38 0
-40 2 -40 30 0 28 3 30 35 30 28 0 35 4 35 20 0 16 -7 20 -35 20 -31 0 -35 3
-35 25 0 23 4 25 40 25 33 0 40 3 40 20 0 18 -7 20 -65 20 l-65 0 0 -110z"/>
<path d="M1020 1130 l0 -110 25 0 c23 0 25 4 25 40 0 53 22 53 52 0 18 -31 29
-40 50 -40 l27 0 -30 45 -30 45 20 22 c28 29 26 54 -4 83 -20 21 -34 25 -80
25 l-55 0 0 -110z m105 40 c0 -20 -6 -26 -27 -28 -25 -3 -28 0 -28 28 0 28 3
31 28 28 21 -2 27 -8 27 -28z"/>
<path d="M1247 1137 c-21 -57 -37 -106 -37 -110 0 -4 11 -7 24 -7 17 0 26 7
30 25 5 21 12 25 46 25 34 0 42 -4 50 -25 6 -17 17 -25 33 -25 l24 0 -37 108
c-35 102 -39 107 -67 110 -29 3 -30 2 -66 -101z m93 -24 c0 -2 -13 -3 -29 -3
-32 0 -32 -2 -4 80 3 9 11 -3 19 -30 7 -25 14 -46 14 -47z"/>
<path d="M1450 1130 l0 -110 70 0 c56 0 70 3 70 15 0 11 -12 15 -45 15 l-45 0
0 95 c0 95 0 95 -25 95 l-25 0 0 -110z"/>
<path d="M865 911 c-3 -5 -1 -12 5 -16 5 -3 10 1 10 9 0 18 -6 21 -15 7z"/>
<path d="M560 883 c-44 -56 -7 -143 60 -143 49 0 60 9 60 51 0 38 -1 39 -32
38 -24 -1 -27 -3 -10 -6 17 -3 22 -11 22 -34 0 -26 -3 -29 -33 -29 -42 0 -67
26 -67 68 0 46 33 76 76 69 19 -3 34 -2 34 4 0 5 -20 9 -44 9 -37 0 -48 -5
-66 -27z"/>
<path d="M729 854 c-7 -9 -13 -32 -13 -51 0 -58 54 -83 94 -43 24 24 26 57 4
88 -18 26 -65 30 -85 6z m69 -6 c25 -25 5 -98 -28 -98 -17 0 -40 32 -40 55 0
42 42 69 68 43z"/>
<path d="M860 811 c0 -33 5 -63 10 -66 6 -4 10 18 10 59 0 37 -4 66 -10 66 -6
0 -10 -26 -10 -59z"/>
<path d="M934 859 c-5 -9 -2 -10 11 -5 23 8 55 -2 55 -18 0 -7 -17 -17 -37
-22 -33 -8 -38 -13 -38 -39 0 -24 5 -31 23 -33 13 -2 29 1 37 8 10 8 14 8 19
-2 3 -7 4 16 3 52 l-2 65 -32 3 c-17 2 -35 -2 -39 -9z m66 -69 c0 -26 -36 -46
-56 -29 -20 16 -17 28 9 39 35 14 47 12 47 -10z"/>
<path d="M1061 800 l2 -65 6 53 c7 53 22 74 51 69 10 -1 16 -17 18 -52 5 -72
22 -82 22 -13 0 65 -12 79 -64 76 l-36 -3 1 -65z"/>
<path d="M1218 859 c-25 -14 -24 -80 0 -102 40 -36 92 -7 92 50 0 50 -48 78
-92 52z m60 -11 c20 -20 15 -76 -8 -88 -29 -15 -64 22 -55 58 10 40 39 54 63
30z"/>
<path d="M510 488 c-60 -64 18 -184 90 -138 11 7 6 10 -22 10 -47 0 -68 21
-68 70 0 31 5 43 25 56 14 9 36 14 50 12 14 -3 25 -1 25 3 0 5 -18 9 -40 9
-27 0 -45 -6 -60 -22z"/>
<path d="M655 459 c-5 -8 -1 -9 14 -4 22 7 51 -9 51 -26 0 -5 -9 -9 -21 -9
-34 0 -59 -19 -59 -45 0 -28 30 -41 58 -26 11 6 22 7 26 3 4 -3 6 20 4 53 -3
59 -3 60 -35 63 -17 2 -34 -2 -38 -9z m65 -58 c0 -24 -14 -41 -35 -41 -32 0
-42 20 -20 37 21 15 55 18 55 4z"/>
<path d="M781 400 l2 -65 6 52 c8 62 23 83 49 67 11 -7 19 -30 23 -65 l6 -54
1 46 c4 100 62 106 73 8 l6 -54 -1 65 c-1 60 -3 65 -24 68 -13 2 -29 -2 -37
-8 -9 -8 -15 -8 -20 0 -3 6 -24 9 -46 8 l-39 -3 1 -65z"/>
<path d="M1002 375 c1 -49 3 -73 5 -53 4 35 6 36 27 26 40 -18 66 4 66 56 0
52 -15 67 -64 64 l-36 -3 2 -90z m72 69 c30 -30 11 -84 -29 -84 -30 0 -43 39
-26 76 12 28 33 31 55 8z"/>
<path d="M1140 415 c0 -49 3 -57 24 -66 17 -8 29 -8 44 0 15 8 22 8 25 -2 3
-6 5 20 5 58 -1 39 -3 54 -5 35 -7 -72 -11 -80 -43 -80 -30 0 -30 1 -30 55 0
30 -4 55 -10 55 -5 0 -10 -25 -10 -55z"/>
<path d="M1287 463 c-18 -17 -5 -44 28 -60 43 -20 40 -36 -6 -44 -27 -4 -30
-7 -16 -13 31 -14 67 2 67 30 0 19 -8 28 -36 40 -42 18 -40 40 5 38 17 -1 31
2 31 7 0 10 -63 12 -73 2z"/>
<path d="M605 231 c-3 -5 -1 -12 5 -16 5 -3 10 1 10 9 0 18 -6 21 -15 7z"/>
<path d="M1330 210 c0 -27 -2 -29 -30 -24 -41 9 -60 -10 -60 -57 0 -45 24 -73
54 -64 12 4 27 7 34 7 8 1 12 25 12 85 0 46 -2 83 -5 83 -3 0 -5 -13 -5 -30z
m-9 -54 c17 -38 4 -76 -26 -76 -34 0 -53 39 -37 75 15 32 49 33 63 1z"/>
<path d="M460 150 c0 -47 4 -80 10 -80 6 0 10 16 10 35 0 46 23 46 52 0 13
-19 26 -35 31 -35 12 0 8 13 -12 39 -18 24 -18 25 1 52 16 22 18 31 9 48 -9
17 -21 21 -56 21 l-45 0 0 -80z m81 54 c18 -21 0 -48 -35 -52 -24 -3 -26 0
-26 32 0 31 3 36 24 36 13 0 29 -7 37 -16z"/>
<path d="M877 158 c27 -75 39 -96 48 -86 14 14 62 159 52 155 -6 -2 -20 -31
-32 -65 -18 -55 -35 -80 -35 -52 0 20 -42 120 -51 120 -4 0 3 -33 18 -72z"/>
<path d="M605 130 c0 -33 3 -60 8 -60 4 0 7 27 7 60 0 33 -3 60 -7 60 -5 0 -8
-27 -8 -60z"/>
<path d="M676 174 c-22 -22 -20 -70 4 -94 24 -24 38 -25 68 -4 24 17 30 61 12
95 -13 23 -62 26 -84 3z m60 -2 c18 -12 24 -41 14 -68 -8 -20 -16 -25 -38 -22
-23 2 -28 8 -30 36 -5 48 23 75 54 54z"/>
<path d="M1022 177 c-6 -6 -13 -24 -17 -39 -5 -21 -1 -33 19 -52 27 -28 42
-31 66 -16 11 7 8 10 -16 10 -33 0 -60 22 -49 40 3 5 24 10 46 10 41 0 46 8
29 41 -12 22 -62 26 -78 6z m56 -9 c20 -20 14 -28 -23 -28 -19 0 -35 4 -35 8
0 12 22 32 35 32 6 0 16 -5 23 -12z"/>
<path d="M1152 130 l1 -65 7 50 c4 28 3 57 -1 65 -5 9 -8 -11 -7 -50z"/>
<path d="M1175 180 c-8 -13 5 -13 25 0 13 8 13 10 -2 10 -9 0 -20 -4 -23 -10z"/>
<path d="M1396 174 c-22 -22 -20 -70 4 -94 21 -21 38 -24 67 -13 13 6 8 9 -22
13 -32 4 -41 10 -43 28 -3 20 1 22 37 22 33 0 41 4 41 18 0 40 -54 57 -84 26z
m64 -14 c10 -18 8 -20 -25 -20 -37 0 -43 8 -23 28 18 18 36 15 48 -8z"/>
</g>
</svg>
