<?xml version="1.0" standalone="no"?>
<!DOCTYPE svg PUBLIC "-//W3C//DTD SVG 20010904//EN"
 "http://www.w3.org/TR/2001/REC-SVG-20010904/DTD/svg10.dtd">
<svg version="1.0" xmlns="http://www.w3.org/2000/svg"
 width="111.000000pt" height="170.000000pt" viewBox="0 0 111.000000 170.000000"
 preserveAspectRatio="xMidYMid meet">

<g transform="translate(0.000000,170.000000) scale(0.100000,-0.100000)"
fill="#000000" stroke="none">
<path d="M364 1688 c-55 -26 -50 -105 7 -129 82 -34 138 85 59 126 -33 17 -37
17 -66 3z"/>
<path d="M493 1674 c-2 -6 -3 -33 -1 -60 l3 -49 57 -3 c53 -3 58 -1 63 21 4
13 5 39 3 58 -3 34 -3 34 -62 39 -39 4 -60 2 -63 -6z"/>
<path d="M656 1665 c-8 -27 -7 -70 0 -89 5 -12 20 -16 60 -16 l54 0 0 50 c0
28 1 53 3 58 1 4 -24 9 -55 12 -51 5 -58 3 -62 -15z"/>
<path d="M334 1515 c-3 -7 -4 -34 -2 -61 l3 -49 60 0 60 0 0 60 0 60 -58 1
c-39 1 -60 -3 -63 -11z"/>
<path d="M494 1516 c-3 -7 -4 -35 -2 -62 l3 -49 54 -3 c62 -4 71 4 71 60 0 62
-6 68 -66 68 -37 0 -56 -4 -60 -14z"/>
<path d="M334 1357 c-3 -8 -4 -36 -2 -63 l3 -49 60 0 60 0 0 60 0 60 -58 3
c-42 2 -59 -1 -63 -11z"/>
<path d="M494 1356 c-3 -7 -4 -35 -2 -62 l3 -49 54 -3 c62 -4 71 4 71 60 0 62
-6 68 -66 68 -37 0 -56 -4 -60 -14z"/>
<path d="M656 1348 c-8 -30 -8 -72 0 -92 5 -12 20 -16 59 -16 l53 0 4 55 c1
30 2 60 0 65 -2 6 -28 10 -57 10 -46 0 -53 -3 -59 -22z"/>
<path d="M337 1203 c-2 -4 -4 -33 -3 -63 l1 -55 60 0 60 0 0 60 0 60 -57 3
c-31 2 -58 -1 -61 -5z"/>
<path d="M494 1196 c-3 -7 -4 -35 -2 -62 l3 -49 60 0 60 0 3 39 c2 22 1 50 -2
63 -6 21 -12 23 -62 23 -37 0 -56 -4 -60 -14z"/>
<path d="M80 915 c0 -51 3 -65 15 -65 12 0 15 14 15 65 0 51 -3 65 -15 65 -12
0 -15 -14 -15 -65z"/>
<path d="M140 915 c0 -51 3 -65 15 -65 11 0 15 11 15 43 l0 42 26 -42 c16 -27
32 -43 45 -43 17 0 19 7 19 65 0 51 -3 65 -15 65 -11 0 -15 -12 -15 -47 l0
-48 -27 48 c-16 29 -33 47 -45 47 -16 0 -18 -9 -18 -65z"/>
<path d="M292 968 c-19 -19 -14 -36 18 -60 17 -12 30 -26 30 -31 0 -5 -13 -7
-30 -5 -35 5 -42 -17 -8 -25 26 -7 68 17 68 38 0 7 -14 23 -30 35 -32 23 -31
45 1 37 12 -3 19 0 19 9 0 17 -51 19 -68 2z"/>
<path d="M380 970 c0 -5 7 -10 15 -10 12 0 15 -13 15 -55 0 -42 3 -55 15 -55
12 0 15 13 15 55 0 48 2 55 20 55 11 0 20 5 20 10 0 6 -22 10 -50 10 -27 0
-50 -4 -50 -10z"/>
<path d="M500 915 c0 -45 4 -65 13 -65 9 0 11 18 9 65 -5 84 -22 84 -22 0z"/>
<path d="M540 970 c0 -5 9 -10 20 -10 18 0 20 -7 20 -55 0 -42 3 -55 15 -55
12 0 15 13 15 55 0 42 3 55 15 55 8 0 15 5 15 10 0 6 -22 10 -50 10 -27 0 -50
-4 -50 -10z"/>
<path d="M660 932 c0 -58 17 -84 53 -84 43 0 57 18 57 78 0 40 -4 54 -14 54
-11 0 -16 -15 -18 -52 -3 -45 -6 -53 -23 -53 -17 0 -20 8 -23 53 -2 37 -7 52
-18 52 -10 0 -14 -13 -14 -48z"/>
<path d="M790 970 c0 -5 7 -10 15 -10 12 0 15 -13 15 -55 0 -42 3 -55 15 -55
11 0 15 12 15 51 0 42 3 52 20 56 37 10 20 23 -30 23 -27 0 -50 -4 -50 -10z"/>
<path d="M916 964 c-18 -18 -21 -66 -6 -95 8 -14 21 -19 48 -19 48 0 62 14 62
61 0 45 -21 69 -60 69 -16 0 -36 -7 -44 -16z m69 -49 c0 -36 -2 -40 -25 -40
-20 0 -26 6 -28 28 -5 42 5 59 30 55 20 -3 23 -9 23 -43z"/>
<path d="M170 754 c0 -48 3 -65 13 -62 6 3 13 16 15 30 2 20 7 25 23 21 13 -4
19 0 19 11 0 9 -8 16 -20 16 -11 0 -20 7 -20 15 0 8 9 15 20 15 11 0 20 5 20
10 0 6 -16 10 -35 10 l-35 0 0 -66z"/>
<path d="M270 754 l0 -65 35 3 c38 3 49 21 15 26 -26 4 -26 32 0 32 11 0 20 5
20 10 0 6 -9 10 -20 10 -11 0 -20 7 -20 15 0 8 9 15 19 15 11 0 23 5 26 10 4
6 -10 10 -34 10 l-41 0 0 -66z"/>
<path d="M370 754 l0 -67 42 6 c47 6 68 27 68 68 0 39 -24 59 -71 59 l-39 0 0
-66z m75 6 c0 -29 -4 -36 -22 -38 -21 -3 -23 1 -23 38 0 37 2 41 23 38 18 -2
22 -9 22 -38z"/>
<path d="M510 755 l0 -65 35 0 c24 0 35 5 35 15 0 8 -9 15 -20 15 -11 0 -20 7
-20 15 0 8 9 15 20 15 11 0 20 5 20 10 0 6 -9 10 -20 10 -11 0 -20 7 -20 15 0
8 9 15 20 15 11 0 20 5 20 10 0 6 -16 10 -35 10 l-35 0 0 -65z"/>
<path d="M610 756 c0 -52 3 -66 15 -66 9 0 15 9 15 25 0 14 4 25 9 25 5 0 16
-11 25 -25 19 -29 76 -36 76 -10 0 10 10 15 29 15 16 0 31 -6 35 -15 6 -17 26
-21 26 -5 0 5 -9 34 -21 65 -28 76 -49 74 -79 -7 l-22 -61 -18 24 c-13 16 -16
27 -9 36 6 6 9 22 7 35 -2 19 -10 23 -45 26 l-43 3 0 -65z m60 29 c0 -8 -7
-15 -15 -15 -8 0 -15 7 -15 15 0 8 7 15 15 15 8 0 15 -7 15 -15z m123 -15 c3
-13 0 -20 -9 -20 -8 0 -14 9 -14 20 0 11 4 20 9 20 5 0 11 -9 14 -20z"/>
<path d="M860 755 l0 -65 40 0 c29 0 40 4 40 15 0 9 -9 15 -25 15 -23 0 -25 3
-25 50 0 38 -4 50 -15 50 -12 0 -15 -14 -15 -65z"/>
<path d="M253 623 c13 -3 17 -15 17 -49 0 -24 4 -44 8 -44 4 0 6 17 4 37 -3
27 0 40 14 50 16 12 14 13 -22 12 -21 -1 -31 -3 -21 -6z"/>
<path d="M638 607 c-8 -23 7 -80 22 -85 12 -4 13 -2 3 9 -15 15 -17 56 -4 61
5 2 3 8 -4 15 -10 9 -14 9 -17 0z"/>
<path d="M327 593 c-12 -11 -8 -50 7 -62 29 -24 65 14 46 50 -10 19 -40 26
-53 12z m43 -26 c0 -13 -3 -26 -6 -30 -12 -12 -34 6 -34 29 0 17 6 24 20 24
14 0 20 -7 20 -23z"/>
<path d="M404 573 c-5 -19 -2 -30 11 -40 23 -16 35 -17 35 -2 0 5 -4 8 -9 4
-13 -7 -32 28 -23 42 4 5 14 13 22 16 10 4 8 6 -7 6 -16 1 -24 -6 -29 -26z"/>
<path d="M500 588 l25 -11 -23 -5 c-25 -4 -40 -28 -26 -42 5 -5 20 -7 32 -3
19 4 23 11 20 37 -2 25 -8 31 -28 33 l-25 3 25 -12z m10 -43 c-12 -15 -30 -12
-30 6 0 5 10 9 21 9 18 0 19 -2 9 -15z"/>
<path d="M551 563 c1 -37 2 -37 8 -8 9 42 41 47 41 6 0 -17 5 -31 10 -31 6 0
10 9 10 19 0 37 -12 51 -41 51 -27 0 -29 -3 -28 -37z"/>
<path d="M693 565 c0 -22 2 -30 4 -17 2 12 2 30 0 40 -3 9 -5 -1 -4 -23z"/>
<path d="M727 594 c-11 -11 -8 -64 3 -64 6 0 10 14 10 31 0 41 32 36 42 -6 6
-29 6 -29 5 5 -2 29 -6 35 -27 38 -14 2 -29 0 -33 -4z"/>
<path d="M810 585 c0 -8 9 -19 20 -25 24 -13 16 -34 -9 -25 -11 4 -13 3 -5 -5
13 -13 44 -3 44 16 0 7 -10 19 -22 26 l-23 12 25 7 25 7 -27 1 c-18 1 -28 -4
-28 -14z"/>
<path d="M292 418 c-15 -15 -15 -61 0 -76 7 -7 21 -12 32 -11 18 1 17 2 -4 8
-35 10 -35 60 0 78 22 11 23 13 5 13 -12 0 -26 -5 -33 -12z"/>
<path d="M388 393 c12 -2 22 -8 22 -13 0 -5 -10 -10 -22 -12 -33 -4 -29 -32 5
-36 25 -3 27 -1 27 32 0 33 -2 36 -27 35 -24 -2 -25 -2 -5 -6z m17 -43 c-3 -5
-13 -10 -21 -10 -8 0 -12 5 -9 10 3 6 13 10 21 10 8 0 12 -4 9 -10z"/>
<path d="M440 366 c0 -20 5 -36 10 -36 6 0 10 14 10 30 0 42 27 40 33 -2 l4
-33 1 33 c3 43 32 45 32 2 0 -16 5 -30 11 -30 6 0 9 14 7 33 -3 31 -4 32 -55
35 l-53 3 0 -35z"/>
<path d="M571 348 c1 -29 3 -45 6 -35 2 9 13 17 23 17 23 0 39 26 33 51 -4 13
-14 19 -34 19 -28 0 -29 -1 -28 -52z m49 17 c0 -25 -23 -35 -35 -15 -10 16 2
40 20 40 9 0 15 -9 15 -25z"/>
<path d="M650 381 c0 -37 12 -51 41 -51 26 0 29 3 29 35 0 19 -4 35 -10 35 -5
0 -10 -13 -10 -30 0 -20 -5 -30 -15 -30 -10 0 -15 10 -15 30 0 17 -4 30 -10
30 -5 0 -10 -9 -10 -19z"/>
<path d="M740 385 c0 -9 7 -18 15 -21 20 -8 19 -21 -2 -27 -14 -4 -13 -5 4 -6
32 -2 39 19 13 39 -22 17 -23 18 -4 23 16 4 16 5 -3 6 -15 1 -23 -5 -23 -14z"/>
<path d="M740 256 c0 -8 -10 -16 -22 -18 -18 -2 -23 -10 -23 -33 0 -25 4 -30
28 -33 26 -3 27 -2 27 47 0 28 -2 51 -5 51 -3 0 -5 -6 -5 -14z m-2 -54 c3 -17
-2 -22 -17 -22 -14 0 -21 6 -21 18 0 38 33 41 38 4z"/>
<path d="M246 220 c-18 -45 -21 -64 -5 -37 5 9 17 17 26 17 9 0 22 -8 29 -17
10 -13 9 -5 -2 30 -9 26 -19 47 -24 47 -4 0 -15 -18 -24 -40z m34 -1 c0 -5 -4
-9 -10 -9 -5 0 -10 7 -10 16 0 8 5 12 10 9 6 -3 10 -10 10 -16z"/>
<path d="M324 208 c19 -44 31 -45 43 -3 13 42 9 45 -11 8 l-14 -28 -7 28 c-4
15 -11 27 -16 27 -4 0 -2 -14 5 -32z"/>
<path d="M413 233 c23 -6 22 -19 -3 -26 -31 -8 -25 -37 8 -37 26 0 28 2 24 35
-3 28 -8 35 -26 34 -16 -1 -17 -2 -3 -6z m17 -43 c0 -5 -7 -10 -15 -10 -8 0
-15 5 -15 10 0 6 7 10 15 10 8 0 15 -4 15 -10z"/>
<path d="M471 203 c1 -36 2 -37 8 -8 3 17 13 30 21 30 8 0 18 -13 22 -30 6
-29 6 -29 5 5 -2 30 -6 35 -29 38 -26 3 -28 1 -27 -35z"/>
<path d="M557 233 c-13 -12 -7 -45 12 -69 18 -23 19 -23 24 -4 4 15 0 20 -14
20 -27 0 -25 38 4 50 21 8 21 9 1 9 -11 1 -24 -2 -27 -6z"/>
<path d="M638 233 c12 -2 22 -8 22 -13 0 -5 -10 -10 -22 -12 -33 -4 -29 -32 5
-36 27 -3 28 -1 25 30 -2 27 -7 33 -28 35 -22 1 -22 1 -2 -4z m17 -43 c-3 -5
-13 -10 -21 -10 -8 0 -12 5 -9 10 3 6 13 10 21 10 8 0 12 -4 9 -10z"/>
<path d="M780 225 c-6 -8 -9 -23 -5 -35 9 -27 51 -27 60 0 7 23 -10 50 -30 50
-7 0 -18 -7 -25 -15z m44 -11 c7 -19 -1 -34 -19 -34 -8 0 -16 4 -19 9 -9 14 4
41 19 41 7 0 16 -7 19 -16z"/>
<path d="M121 48 c1 -29 4 -43 6 -30 2 12 10 22 17 22 8 0 19 7 26 15 16 19
-3 45 -31 45 -16 0 -19 -7 -18 -52z m37 19 c2 -10 -3 -17 -12 -17 -10 0 -16 9
-16 21 0 24 23 21 28 -4z"/>
<path d="M320 86 c0 -8 -10 -16 -22 -18 -18 -2 -23 -10 -23 -33 0 -25 4 -30
28 -33 26 -3 27 -2 27 47 0 28 -2 51 -5 51 -3 0 -5 -6 -5 -14z m-2 -48 c-2
-13 -10 -23 -18 -23 -8 0 -16 10 -18 23 -3 17 2 22 18 22 16 0 21 -5 18 -22z"/>
<path d="M536 60 c-18 -45 -21 -75 -5 -48 12 22 49 24 49 3 0 -8 4 -15 10 -15
7 0 -23 86 -34 98 -2 1 -11 -15 -20 -38z m34 -11 c0 -5 -7 -9 -15 -9 -9 0 -12
6 -9 15 6 15 24 11 24 -6z"/>
<path d="M617 93 c-11 -10 -8 -93 3 -93 9 0 16 48 11 74 -1 5 4 13 11 17 10 7
9 9 -3 9 -9 0 -19 -3 -22 -7z"/>
<path d="M195 50 c-8 -26 11 -50 39 -49 20 2 20 2 -1 6 -29 6 -30 23 -2 23 28
0 21 34 -8 38 -14 2 -23 -3 -28 -18z m45 0 c0 -5 -7 -10 -15 -10 -8 0 -15 5
-15 10 0 6 7 10 15 10 8 0 15 -4 15 -10z"/>
<path d="M352 35 c-2 -19 2 -35 8 -35 5 0 10 13 10 29 0 16 6 32 13 34 6 3 3
6 -8 6 -17 1 -21 -6 -23 -34z"/>
<path d="M405 50 c-8 -25 10 -50 36 -50 20 0 36 40 24 59 -11 19 -53 12 -60
-9z m50 -15 c0 -11 -8 -21 -17 -23 -14 -3 -18 3 -18 23 0 20 4 26 18 23 9 -2
17 -12 17 -23z"/>
<path d="M655 50 c-12 -39 30 -65 55 -35 18 21 3 55 -25 55 -15 0 -26 -7 -30
-20z m49 1 c9 -14 -4 -41 -19 -41 -15 0 -28 27 -19 41 3 5 11 9 19 9 8 0 16
-4 19 -9z"/>
<path d="M742 33 c1 -38 1 -38 5 -5 5 42 35 40 45 -3 6 -29 6 -29 5 5 -2 30
-6 35 -29 38 -26 3 -28 1 -26 -35z"/>
<path d="M820 55 c0 -9 7 -18 15 -21 20 -8 19 -21 -2 -27 -14 -4 -13 -5 4 -6
32 -2 39 19 13 39 -22 17 -23 18 -4 23 16 4 16 5 -3 6 -15 1 -23 -5 -23 -14z"/>
<path d="M885 50 c-12 -39 30 -65 55 -35 18 21 3 55 -25 55 -15 0 -26 -7 -30
-20z m48 -2 c6 -19 -3 -38 -18 -38 -15 0 -28 27 -19 41 8 13 32 11 37 -3z"/>
</g>
</svg>
