<?xml version="1.0" standalone="no"?>
<!DOCTYPE svg PUBLIC "-//W3C//DTD SVG 20010904//EN"
 "http://www.w3.org/TR/2001/REC-SVG-20010904/DTD/svg10.dtd">
<svg version="1.0" xmlns="http://www.w3.org/2000/svg"
 width="144.000000pt" height="207.000000pt" viewBox="0 0 144.000000 207.000000"
 preserveAspectRatio="xMidYMid meet">

<g transform="translate(0.000000,207.000000) scale(0.100000,-0.100000)"
fill="#000000" stroke="none">
<path d="M463 2054 c-42 -21 -61 -72 -43 -115 16 -37 37 -49 89 -49 97 0 122
123 35 165 -39 18 -41 18 -81 -1z"/>
<path d="M675 2043 c-30 -5 -60 -23 -37 -23 7 0 12 -7 12 -15 0 -8 -4 -15 -10
-15 -5 0 -10 -9 -10 -20 0 -11 5 -20 10 -20 6 0 10 -9 10 -20 0 -19 5 -21 61
-18 60 3 62 4 65 33 2 16 -2 36 -9 44 -9 10 -9 15 -1 18 7 2 10 12 7 22 -5 18
-34 22 -98 14z"/>
<path d="M860 2040 c-11 -6 -15 -24 -14 -65 1 -31 3 -58 5 -59 10 -9 106 -15
117 -8 13 9 23 104 13 121 -8 13 -103 22 -121 11z"/>
<path d="M463 1832 c-21 -3 -23 -9 -23 -68 l0 -64 65 0 65 0 1 43 c1 40 -1 80
-5 84 -4 4 -84 9 -103 5z"/>
<path d="M668 1832 c-10 -2 -18 -10 -18 -17 0 -7 -6 -16 -12 -19 -10 -5 -10
-7 0 -12 6 -3 12 -23 12 -45 l0 -39 59 0 c48 0 60 3 64 18 8 29 7 86 -1 98 -8
12 -76 23 -104 16z"/>
<path d="M454 1622 c-15 -9 -23 -122 -9 -123 6 0 36 -1 67 -2 l56 -2 4 58 c2
31 2 62 0 67 -4 12 -101 13 -118 2z"/>
<path d="M647 1591 c-2 -21 -3 -50 0 -64 5 -23 10 -26 59 -29 30 -1 59 -1 64
0 11 4 13 74 4 110 -6 20 -13 22 -64 22 l-57 0 -6 -39z"/>
<path d="M849 1613 c0 -10 -2 -37 -5 -61 -3 -37 -1 -44 18 -50 13 -5 45 -7 71
-4 l48 4 -3 62 -3 61 -62 3 c-55 3 -63 1 -64 -15z"/>
<path d="M440 1355 l0 -65 63 0 c35 0 66 2 68 4 2 2 2 32 1 65 l-4 61 -64 0
-64 0 0 -65z"/>
<path d="M648 1359 c-1 -33 -1 -63 1 -65 2 -2 33 -4 68 -4 l63 0 -2 65 -2 65
-62 0 -62 0 -4 -61z"/>
<path d="M106 1143 c-3 -4 -6 -44 -6 -90 0 -76 2 -83 20 -83 18 0 20 7 20 84
0 63 -4 85 -14 89 -8 3 -17 3 -20 0z"/>
<path d="M187 1143 c-4 -3 -7 -44 -7 -90 0 -67 3 -83 15 -83 12 0 15 13 15 61
0 33 4 58 8 55 4 -2 21 -30 37 -60 23 -44 34 -56 53 -56 22 0 23 2 20 85 -3
94 -21 120 -26 38 -2 -29 -7 -53 -11 -53 -4 0 -16 17 -27 37 -33 65 -58 86
-77 66z"/>
<path d="M390 1143 c-36 -15 -40 -57 -7 -84 12 -10 28 -18 35 -19 6 0 12 -10
12 -21 0 -19 -4 -21 -36 -16 -29 5 -35 3 -32 -11 5 -24 64 -28 89 -6 31 28 21
64 -26 90 -11 6 -22 19 -23 29 -3 14 1 17 21 13 26 -5 56 6 46 16 -9 10 -63
16 -79 9z"/>
<path d="M493 1144 c-20 -9 -15 -22 10 -26 20 -3 22 -9 25 -75 2 -55 6 -73 17
-73 11 0 15 18 17 73 3 67 5 72 26 75 41 6 17 27 -34 29 -27 1 -55 0 -61 -3z"/>
<path d="M643 1143 c-9 -3 -13 -31 -13 -89 0 -77 2 -84 20 -84 18 0 20 7 20
84 0 85 -4 97 -27 89z"/>
<path d="M707 1143 c-12 -11 -8 -21 13 -26 18 -5 20 -14 20 -77 0 -63 2 -71
18 -68 14 3 18 16 20 76 3 64 5 72 22 72 11 0 20 7 20 15 0 11 -13 15 -53 15
-30 0 -57 -3 -60 -7z"/>
<path d="M856 1143 c-3 -3 -6 -36 -6 -73 0 -76 16 -100 67 -100 49 0 64 27 61
106 -4 85 -21 87 -28 3 -6 -69 -25 -94 -54 -70 -11 10 -16 31 -16 72 0 54 -9
77 -24 62z"/>
<path d="M1010 1135 c0 -8 9 -15 20 -15 17 0 19 -8 22 -72 2 -57 6 -73 18 -73
12 0 15 15 16 70 1 64 3 70 23 73 43 7 14 27 -42 30 -46 2 -57 0 -57 -13z"/>
<path d="M1176 1129 c-34 -27 -37 -93 -5 -133 26 -34 79 -36 108 -4 77 81 -16
205 -103 137z m82 -48 c7 -75 -28 -108 -62 -59 -21 29 -20 53 2 78 26 32 56
22 60 -19z"/>
<path d="M212 858 c2 -66 6 -83 18 -83 10 0 16 12 18 32 3 25 8 32 28 35 32 4
32 22 -1 26 -19 3 -25 9 -25 28 0 20 5 24 29 24 17 0 33 5 36 10 4 6 -15 10
-50 10 l-56 0 3 -82z"/>
<path d="M350 854 l0 -85 42 3 c49 4 66 28 19 28 -26 0 -31 4 -31 25 0 20 5
25 25 25 16 0 25 6 25 15 0 9 -9 15 -25 15 -18 0 -25 5 -25 20 0 16 7 20 30
20 17 0 30 5 30 10 0 6 -20 10 -45 10 l-45 0 0 -86z"/>
<path d="M480 855 l0 -85 31 0 c87 0 135 90 81 153 -11 12 -30 17 -64 17 l-48
0 0 -85z m82 48 c26 -24 23 -67 -7 -87 -13 -9 -27 -16 -30 -16 -3 0 -5 27 -5
60 0 64 9 73 42 43z"/>
<path d="M652 858 c3 -79 4 -83 27 -86 30 -5 71 6 71 18 0 5 -12 10 -27 12
-20 2 -29 9 -31 26 -3 18 1 22 22 22 33 0 33 18 0 30 -32 12 -27 34 9 38 47 6
29 22 -23 22 l-51 0 3 -82z"/>
<path d="M782 858 c2 -66 6 -83 18 -83 10 0 16 12 18 33 4 41 22 41 43 0 13
-27 21 -32 53 -34 31 -1 39 3 47 23 6 17 16 23 39 23 19 0 30 -5 30 -14 0 -18
26 -39 39 -32 9 6 -8 74 -30 118 -5 10 -9 25 -9 33 0 10 -10 15 -29 15 -28 0
-37 -16 -76 -137 -5 -16 -25 -17 -25 -2 0 6 -7 17 -15 26 -14 14 -14 17 0 32
18 21 20 52 3 69 -7 7 -34 12 -60 12 l-49 0 3 -82z m73 37 c0 -11 -8 -21 -17
-23 -14 -3 -18 3 -18 23 0 20 4 26 18 23 9 -2 17 -12 17 -23z m165 -36 c0 -4
-7 -10 -15 -13 -19 -7 -30 17 -20 42 6 16 7 16 21 -2 8 -11 14 -23 14 -27z"/>
<path d="M1102 858 l3 -83 48 -3 c36 -2 47 0 47 12 0 9 -12 16 -32 18 l-33 3
-3 68 c-2 51 -6 67 -18 67 -12 0 -14 -15 -12 -82z"/>
<path d="M325 681 c15 -6 21 -20 26 -62 l6 -54 1 53 c2 44 5 54 25 62 17 7 12
9 -28 9 -34 0 -44 -3 -30 -8z"/>
<path d="M817 663 c-9 -15 8 -96 21 -101 14 -4 16 14 2 23 -16 10 -12 55 6 62
13 5 13 7 2 14 -16 11 -26 11 -31 2z"/>
<path d="M416 645 c-21 -22 -20 -48 3 -69 26 -24 54 -17 65 17 18 50 -31 88
-68 52z m54 -10 c6 -8 10 -22 8 -32 -5 -25 -51 -25 -56 0 -8 42 23 63 48 32z"/>
<path d="M526 644 c-18 -47 7 -94 41 -79 16 7 15 9 -7 14 -19 5 -25 13 -25 36
0 23 6 31 25 36 l25 7 -26 1 c-16 1 -29 -5 -33 -15z"/>
<path d="M629 651 c34 -9 39 -31 8 -31 -17 0 -28 -7 -32 -21 -10 -29 5 -40 43
-33 27 5 32 11 32 34 0 47 -10 60 -44 59 -28 -1 -29 -2 -7 -8z m26 -62 c-8
-12 -35 -12 -35 0 0 11 22 20 33 14 4 -2 5 -9 2 -14z"/>
<path d="M718 653 c-13 -3 -18 -15 -18 -44 0 -21 5 -39 10 -39 6 0 10 12 10
28 1 65 46 69 53 5 4 -34 4 -33 3 7 -1 47 -13 56 -58 43z"/>
<path d="M880 609 c0 -31 4 -48 10 -44 6 3 10 26 10 51 0 24 -4 44 -10 44 -5
0 -10 -23 -10 -51z"/>
<path d="M931 610 l1 -45 8 38 c8 44 14 51 35 44 9 -4 15 -19 15 -42 0 -19 5
-35 10 -35 12 0 13 60 2 78 -5 7 -23 11 -40 10 -31 -2 -32 -4 -31 -48z"/>
<path d="M1043 653 c-21 -8 -15 -29 12 -43 31 -17 27 -36 -6 -33 l-24 3 23
-12 c19 -9 26 -8 39 5 13 13 14 19 3 31 -7 9 -19 16 -26 16 -23 0 -16 28 9 33
18 4 19 4 2 5 -11 0 -26 -2 -32 -5z"/>
<path d="M58 503 c29 -2 74 -2 100 0 26 2 2 3 -53 3 -55 0 -76 -1 -47 -3z"/>
<path d="M423 503 c26 -2 68 -2 95 0 26 2 4 3 -48 3 -52 0 -74 -1 -47 -3z"/>
<path d="M653 503 c9 -2 23 -2 30 0 6 3 -1 5 -18 5 -16 0 -22 -2 -12 -5z"/>
<path d="M748 503 c6 -2 18 -2 25 0 6 3 1 5 -13 5 -14 0 -19 -2 -12 -5z"/>
<path d="M828 503 c6 -2 18 -2 25 0 6 3 1 5 -13 5 -14 0 -19 -2 -12 -5z"/>
<path d="M1273 503 c9 -2 23 -2 30 0 6 3 -1 5 -18 5 -16 0 -22 -2 -12 -5z"/>
<path d="M1343 503 c9 -2 25 -2 35 0 9 3 1 5 -18 5 -19 0 -27 -2 -17 -5z"/>
<path d="M375 424 c-14 -10 -20 -26 -20 -55 0 -44 15 -59 55 -57 24 1 24 1 2
5 -28 6 -47 43 -38 77 5 21 12 26 37 26 18 0 28 4 24 10 -9 14 -37 12 -60 -6z"/>
<path d="M480 401 c0 -6 8 -11 18 -11 15 0 19 -8 20 -36 1 -20 4 -39 7 -43 4
-3 5 17 3 44 -3 43 -6 50 -25 53 -13 2 -23 -1 -23 -7z"/>
<path d="M583 403 c-19 -4 -23 -11 -23 -43 0 -21 5 -42 10 -45 6 -4 10 10 10
35 0 37 2 41 23 38 17 -2 23 -11 28 -43 4 -28 7 -32 8 -13 2 38 11 58 27 58
10 0 14 -12 14 -40 0 -22 5 -40 10 -40 11 0 14 59 4 84 -7 19 -40 21 -48 4 -5
-10 -7 -10 -12 0 -6 12 -11 13 -51 5z"/>
<path d="M743 403 c-16 -6 -18 -133 -3 -133 6 0 10 9 10 20 0 14 7 20 24 20
25 0 36 16 36 54 0 37 -30 55 -67 39z m54 -29 c8 -20 -8 -48 -31 -52 -12 -3
-16 4 -16 32 0 30 4 36 20 36 11 0 23 -7 27 -16z"/>
<path d="M946 393 c-5 -11 2 -24 21 -39 l28 -23 -25 -10 -25 -10 28 0 c22 -1
27 3 27 23 0 16 -7 27 -20 31 -11 3 -20 11 -20 16 0 5 9 9 20 9 11 0 20 5 20
10 0 17 -47 11 -54 -7z"/>
<path d="M839 373 c-7 -43 6 -63 41 -63 29 0 30 1 29 48 l-2 47 -6 -40 c-5
-31 -10 -40 -26 -40 -16 0 -21 8 -25 40 l-6 40 -5 -32z"/>
<path d="M468 348 c-8 -22 3 -38 25 -37 17 1 18 2 5 6 -21 5 -24 29 -5 36 7 4
6 6 -4 6 -9 1 -19 -5 -21 -11z"/>
<path d="M157 233 c-11 -10 -8 -123 3 -123 6 0 10 11 10 24 0 17 7 26 24 30
33 8 41 35 17 58 -21 18 -42 23 -54 11z m48 -23 c7 -12 -12 -40 -26 -40 -5 0
-9 11 -9 25 0 25 23 35 35 15z"/>
<path d="M410 225 c0 -9 -9 -15 -25 -15 -27 0 -40 -28 -33 -71 2 -19 9 -24 36
-25 l32 -1 0 64 c0 34 -2 63 -5 63 -3 0 -5 -7 -5 -15z m-2 -60 c3 -28 -13 -49
-32 -42 -10 4 -16 18 -16 37 0 27 3 31 23 28 13 -2 23 -11 25 -23z"/>
<path d="M786 224 c-10 -26 -7 -114 4 -114 6 0 10 18 10 39 0 22 5 42 13 44 9
4 9 8 -2 15 -11 8 -10 12 5 21 18 10 18 10 -2 11 -12 0 -25 -7 -28 -16z"/>
<path d="M681 175 c-22 -58 -22 -85 -1 -46 14 27 46 27 60 0 19 -35 22 -14 4
32 -30 77 -39 79 -63 14z m43 -6 c-10 -16 -24 -9 -24 12 0 18 2 19 15 9 8 -7
12 -16 9 -21z"/>
<path d="M262 198 c-7 -7 -12 -27 -12 -45 0 -26 5 -34 25 -39 13 -3 30 -4 37
-1 7 3 1 6 -13 6 -15 1 -29 7 -32 15 -7 19 1 26 30 26 13 0 23 6 23 13 0 16
-20 37 -35 37 -6 0 -16 -5 -23 -12z m38 -18 c0 -5 -9 -10 -21 -10 -11 0 -17 5
-14 10 3 6 13 10 21 10 8 0 14 -4 14 -10z"/>
<path d="M468 203 c-13 -3 -18 -15 -18 -43 0 -21 5 -42 10 -45 6 -4 10 8 10
30 0 22 6 38 15 41 8 4 15 10 15 15 0 9 -4 10 -32 2z"/>
<path d="M524 186 c-10 -42 -1 -71 24 -74 30 -5 52 14 52 45 0 51 -64 75 -76
29z m54 -28 c-2 -25 -8 -33 -23 -33 -20 0 -31 25 -21 51 3 8 15 14 26 14 18 0
21 -5 18 -32z"/>
<path d="M847 192 c-20 -22 -21 -41 -2 -65 19 -26 59 -19 63 12 9 62 -26 92
-61 53z m51 -34 c-4 -42 -34 -51 -44 -14 -7 31 1 46 27 46 17 0 20 -6 17 -32z"/>
<path d="M958 203 c-13 -3 -18 -15 -18 -44 0 -21 5 -39 10 -39 6 0 10 16 10
36 0 31 3 35 23 32 17 -2 22 -10 23 -35 0 -47 14 -53 14 -7 0 55 -16 69 -62
57z"/>
<path d="M1057 203 c-13 -13 -7 -38 13 -51 26 -16 25 -29 -2 -35 -16 -4 -14
-5 6 -4 40 3 43 20 9 51 -27 25 -27 26 -5 26 12 0 22 5 22 10 0 11 -33 14 -43
3z"/>
<path d="M1142 198 c-7 -7 -12 -27 -12 -45 0 -27 5 -34 25 -39 45 -11 69 30
45 77 -12 21 -40 25 -58 7z m55 -24 c7 -20 -8 -48 -29 -52 -17 -3 -30 31 -21
54 7 19 42 18 50 -2z"/>
</g>
</svg>
