<?xml version="1.0" standalone="no"?>
<!DOCTYPE svg PUBLIC "-//W3C//DTD SVG 20010904//EN"
 "http://www.w3.org/TR/2001/REC-SVG-20010904/DTD/svg10.dtd">
<svg version="1.0" xmlns="http://www.w3.org/2000/svg"
 width="200.000000pt" height="200.000000pt" viewBox="0 0 200.000000 200.000000"
 preserveAspectRatio="xMidYMid meet">

<g transform="translate(0.000000,200.000000) scale(0.100000,-0.100000)"
fill="#000000" stroke="none">
<path d="M705 1835 c-5 -2 -30 -6 -55 -10 -25 -3 -61 -15 -80 -27 -19 -12 -39
-22 -45 -23 -5 0 -9 -7 -7 -14 1 -7 -2 -10 -7 -7 -5 4 -31 -15 -58 -41 -51
-50 -109 -155 -97 -175 4 -6 3 -8 -4 -4 -19 12 -45 -137 -39 -227 3 -43 10
-84 15 -89 6 -6 8 -16 6 -23 -7 -17 32 -110 67 -162 25 -35 33 -42 45 -32 7 6
12 15 9 18 -2 4 3 8 11 8 10 0 8 -7 -8 -24 -23 -24 -23 -25 -3 -39 11 -8 25
-12 32 -10 7 3 10 -1 7 -8 -6 -17 22 -40 37 -30 8 4 9 3 5 -5 -8 -12 47 -40
88 -46 12 -1 29 -6 38 -10 24 -10 125 0 175 18 103 35 169 95 212 192 25 56
44 142 35 156 -4 8 -3 9 4 5 18 -11 15 76 -2 100 -13 17 -27 19 -122 19 -74 0
-109 -4 -111 -12 -3 -7 -11 -9 -20 -6 -12 5 -14 3 -8 -7 5 -9 4 -11 -3 -6 -6
4 -24 0 -39 -8 -43 -23 -133 -106 -133 -122 0 -9 4 -13 9 -9 5 3 13 1 16 -5 4
-6 1 -9 -7 -8 -8 2 -12 -5 -10 -17 2 -16 1 -17 -7 -5 -5 8 -7 18 -5 22 3 4 1
8 -4 8 -5 0 -15 -11 -22 -25 -10 -20 -11 -27 0 -40 11 -13 18 -10 58 25 24 22
49 40 54 40 5 0 6 4 3 10 -4 6 1 7 11 3 10 -4 15 -2 11 3 -3 5 2 10 11 11 9 1
42 9 72 18 30 8 73 14 95 13 34 -3 40 -7 43 -28 2 -14 -10 -51 -26 -83 -16
-32 -25 -60 -21 -63 5 -3 8 -13 8 -22 -1 -15 -2 -15 -6 1 -2 9 -6 17 -8 17 -2
0 -26 -16 -54 -35 -29 -19 -68 -37 -87 -41 -32 -6 -119 -2 -154 7 -9 2 -14 -2
-12 -9 1 -8 -2 -11 -7 -7 -6 3 -8 12 -4 20 3 8 0 15 -6 15 -6 0 -14 0 -18 1
-5 0 -27 21 -51 47 -46 51 -102 152 -102 186 0 17 -2 18 -9 7 -7 -10 -8 -2 -6
25 3 21 6 71 9 110 3 39 11 88 20 107 14 34 13 38 -2 48 -16 10 -16 10 1 5 12
-4 24 5 41 33 52 82 142 133 234 132 79 -1 83 -3 144 -41 29 -19 60 -35 68
-35 8 -1 14 -7 12 -14 -3 -16 26 -51 42 -51 12 0 76 63 76 74 0 3 -26 32 -57
64 -62 62 -146 118 -163 107 -5 -3 -10 -2 -10 4 0 5 -19 12 -42 16 -24 3 -50
8 -58 10 -8 2 -19 2 -25 0z m-130 -54 c3 -5 2 -12 -3 -15 -5 -3 -9 1 -9 9 0
17 3 19 12 6z m80 -59 c-3 -3 -11 0 -18 7 -9 10 -8 11 6 5 10 -3 15 -9 12 -12z
m245 -17 c0 -5 -5 -3 -10 5 -5 8 -10 20 -10 25 0 6 5 3 10 -5 5 -8 10 -19 10
-25z m-345 -25 c-3 -4 0 -11 5 -13 6 -3 5 -4 -1 -3 -7 1 -13 10 -15 19 -1 9 2
15 7 11 5 -3 7 -9 4 -14z m-38 -47 c0 -9 -4 -10 -14 -2 -7 6 -13 12 -13 14 0
1 6 2 13 2 8 0 14 -6 14 -14z m186 -448 c-3 -9 -8 -14 -10 -11 -3 3 -2 9 2 15
9 16 15 13 8 -4z m-292 -18 c-10 -9 -11 -8 -5 6 3 10 9 15 12 12 3 -3 0 -11
-7 -18z m548 -110 c0 -9 -2 -8 -6 1 -2 6 -10 9 -15 6 -7 -4 -8 -2 -4 5 9 13
26 5 25 -12z m-372 -82 c0 -8 -4 -12 -9 -9 -5 3 -6 10 -3 15 9 13 12 11 12 -6z
m-46 -22 c12 -16 12 -17 -2 -6 -9 7 -20 9 -24 5 -5 -4 -5 -1 -1 6 9 16 11 15
27 -5z m363 5 c-5 -7 -2 -9 8 -6 8 4 15 0 15 -8 0 -7 -4 -11 -9 -8 -5 3 -15 0
-23 -6 -11 -9 -15 -9 -15 -1 0 6 5 11 10 11 6 0 9 3 9 8 -2 12 1 22 7 22 3 0
2 -5 -2 -12z"/>
<path d="M1497 1743 c-70 -188 -88 -244 -81 -254 4 -7 3 -9 -3 -6 -8 5 -96
-219 -107 -271 -1 -9 -13 -39 -24 -65 -12 -27 -20 -53 -16 -58 3 -5 1 -9 -5
-9 -6 0 -7 -7 -4 -17 4 -10 2 -14 -4 -10 -8 5 -31 -50 -38 -93 -1 -3 -9 -22
-18 -44 -9 -21 -17 -40 -17 -42 0 -2 27 -4 59 -4 57 0 60 1 81 35 12 19 24 34
28 33 4 -1 30 10 57 23 39 19 71 24 147 27 111 4 189 -13 237 -54 17 -14 34
-25 38 -25 4 1 9 -3 9 -9 1 -5 2 -14 3 -20 1 -9 131 -15 131 -6 0 7 -51 140
-58 151 -7 11 -9 17 -11 40 0 8 -7 15 -15 15 -8 0 -17 7 -20 16 -6 15 -4 15
11 3 15 -13 16 -12 9 6 -5 11 -21 58 -38 105 -16 47 -34 87 -39 88 -5 2 -7 7
-4 12 6 10 -36 123 -50 132 -5 4 -7 8 -3 8 4 0 -5 35 -21 78 -16 42 -45 123
-66 180 l-37 102 -53 0 -53 0 -25 -67z m114 -56 c-10 -9 -11 -8 -5 6 3 10 9
15 12 12 3 -3 0 -11 -7 -18z m-120 -80 c-10 -9 -11 -8 -5 6 3 10 9 15 12 12 3
-3 0 -11 -7 -18z m94 14 c-8 -14 16 -61 28 -54 6 3 7 1 3 -5 -9 -15 24 -93 37
-85 5 3 7 1 4 -4 -7 -11 36 -127 44 -119 3 3 6 -3 7 -12 15 -139 15 -140 -12
-187 -15 -25 -32 -45 -37 -45 -6 0 -9 -7 -6 -14 4 -10 1 -13 -7 -10 -8 3 -16
1 -19 -3 -3 -5 -31 -6 -64 -1 -32 5 -66 9 -75 10 -9 1 -15 4 -13 6 2 3 -8 20
-23 40 -24 32 -27 44 -28 119 0 46 1 81 4 78 3 -3 25 39 49 93 59 132 97 202
110 202 2 0 2 -4 -2 -9z m85 -36 c0 -1 -6 -7 -13 -13 -10 -8 -13 -6 -13 7 0
11 6 17 13 14 7 -3 13 -6 13 -8z m201 -522 c13 -16 12 -17 -3 -4 -17 13 -22
21 -14 21 2 0 10 -8 17 -17z m-454 -59 c-3 -3 -12 -4 -19 -1 -8 3 -5 6 6 6 11
1 17 -2 13 -5z m-117 -89 c0 -8 -3 -16 -7 -18 -5 -3 -8 5 -8 18 0 13 3 21 8
18 4 -2 7 -10 7 -18z"/>
<path d="M10 1335 l0 -465 70 0 70 0 0 465 0 465 -70 0 -70 0 0 -465z"/>
<path d="M550 1110 c0 -5 20 -21 45 -35 49 -29 155 -47 155 -26 0 7 4 9 10 6
9 -6 90 30 90 41 0 2 -9 0 -19 -6 -28 -15 -141 -29 -147 -18 -3 5 -12 3 -20
-3 -9 -7 -14 -8 -12 -3 2 5 -1 11 -7 13 -5 2 -21 12 -34 22 -25 20 -61 25 -61
9z"/>
<path d="M1170 721 c-8 -5 -17 -8 -21 -6 -16 11 -41 -38 -45 -85 -3 -45 0 -55
22 -75 36 -33 76 -40 119 -20 30 15 35 22 35 51 0 29 -4 34 -22 34 -19 -1 -20
-2 -7 -10 11 -6 15 -18 12 -34 -7 -33 -68 -50 -106 -29 -24 12 -30 24 -41 84
-4 21 25 73 44 78 35 9 104 -4 95 -19 -3 -5 -1 -11 5 -15 15 -9 12 21 -3 34
-20 16 -70 23 -87 12z"/>
<path d="M20 624 c0 -61 4 -93 10 -89 13 8 13 185 0 185 -6 0 -10 -39 -10 -96z"/>
<path d="M470 710 c0 -5 5 -10 10 -10 6 0 10 5 10 10 0 6 -4 10 -10 10 -5 0
-10 -4 -10 -10z"/>
<path d="M547 703 c-5 -7 -5 -17 -2 -23 3 -5 -2 -10 -12 -11 -10 0 -13 -3 -5
-6 7 -3 12 -25 12 -60 0 -41 5 -59 18 -69 21 -16 32 -17 32 -4 0 6 -7 10 -15
10 -24 0 -21 117 3 123 15 4 15 5 0 6 -9 0 -18 11 -20 24 -2 15 -5 18 -11 10z"/>
<path d="M784 699 c-8 -13 -7 -124 2 -150 5 -18 44 -33 44 -18 0 5 -7 9 -15 9
-12 0 -15 14 -16 63 -1 34 0 72 1 85 2 24 -5 29 -16 11z"/>
<path d="M401 616 c1 -65 5 -86 17 -91 18 -7 31 3 15 13 -18 11 -27 109 -10
119 11 6 10 11 -5 26 -19 18 -19 16 -17 -67z"/>
<path d="M91 603 c1 -40 5 -73 10 -73 5 0 9 25 9 55 0 43 4 56 19 65 41 21 57
0 64 -85 3 -29 4 -23 5 21 1 35 -3 65 -10 72 -16 16 -51 15 -66 0 -10 -10 -15
-10 -22 2 -6 10 -9 -9 -9 -57z"/>
<path d="M270 663 c-8 -3 -18 -11 -22 -16 -8 -12 13 -48 24 -41 4 3 8 0 8 -5
0 -6 3 -10 8 -9 4 1 17 -1 30 -6 26 -9 29 -31 5 -45 -17 -10 -17 -10 -1 -11
10 0 22 9 28 19 13 25 -5 45 -55 61 -40 13 -45 32 -12 48 23 11 13 15 -13 5z"/>
<path d="M320 654 c8 -10 15 -20 16 -22 1 -2 5 1 8 7 4 5 -4 15 -16 22 -22 12
-22 11 -8 -7z"/>
<path d="M471 600 c0 -38 4 -70 8 -70 5 0 9 32 10 70 1 40 -2 70 -8 70 -5 0
-10 -31 -10 -70z"/>
<path d="M620 605 c0 -60 2 -66 25 -77 19 -9 29 -8 49 5 18 12 26 13 29 4 3
-6 6 21 6 61 1 39 -3 72 -8 72 -5 0 -9 -24 -9 -54 1 -65 -5 -76 -41 -76 -26 0
-29 4 -35 43 -3 23 -4 52 -2 65 3 12 1 22 -5 22 -5 0 -9 -29 -9 -65z"/>
<path d="M808 663 c7 -3 16 -2 19 1 4 3 -2 6 -13 5 -11 0 -14 -3 -6 -6z"/>
<path d="M877 657 c-10 -6 -20 -29 -23 -49 -6 -31 -2 -40 21 -62 34 -31 45
-32 79 -5 68 53 -8 167 -77 116z m80 -27 c17 -36 5 -80 -25 -91 -34 -13 -62
13 -62 57 0 62 62 86 87 34z"/>
<path d="M1337 652 c-37 -41 -7 -132 44 -132 27 0 69 44 69 73 0 61 -76 100
-113 59z m77 -8 c19 -18 21 -78 4 -91 -28 -21 -49 -22 -68 -3 -26 26 -25 65 0
90 24 24 43 25 64 4z"/>
<path d="M1564 656 c-10 -8 -16 -18 -11 -22 4 -4 13 1 21 12 12 15 19 17 43 9
23 -9 28 -17 30 -48 3 -59 -47 -99 -77 -62 -18 21 -5 45 24 45 14 0 28 5 31
10 4 7 -3 8 -22 4 -48 -12 -62 -23 -58 -46 6 -29 25 -40 55 -32 14 3 34 6 45
6 18 0 20 6 17 57 -2 31 -8 61 -12 66 -13 16 -64 17 -86 1z"/>
<path d="M1711 600 c-1 -44 2 -70 8 -70 7 0 11 23 11 55 0 44 4 56 20 65 37
20 59 -3 63 -68 l3 -57 2 67 c2 65 1 68 -25 74 -14 4 -34 2 -43 -4 -11 -7 -21
-7 -27 -1 -7 7 -11 -15 -12 -61z"/>
<path d="M1881 644 c-22 -29 -27 -59 -11 -69 6 -4 10 6 10 23 0 33 30 65 57
60 24 -5 45 -51 37 -83 -9 -37 -48 -54 -72 -32 -10 10 -22 17 -27 17 -4 0 2
-9 15 -20 28 -24 48 -25 78 -4 18 12 22 24 21 57 -1 23 -9 50 -17 60 -23 26
-67 22 -91 -9z"/>
<path d="M1493 590 c0 -36 2 -50 4 -32 2 17 2 47 0 65 -2 17 -4 3 -4 -33z"/>
<path d="M1208 613 c7 -3 16 -2 19 1 4 3 -2 6 -13 5 -11 0 -14 -3 -6 -6z"/>
<path d="M245 560 c-6 -9 42 -46 50 -39 2 2 -7 14 -21 26 -13 12 -26 17 -29
13z"/>
<path d="M120 430 c0 -17 5 -30 13 -30 8 0 7 -3 -3 -10 -9 -6 -18 -6 -24 0
-31 31 -102 -14 -91 -58 3 -14 2 -21 -4 -18 -17 11 8 -58 26 -71 22 -17 44
-16 71 3 20 14 22 14 22 0 0 -9 4 -16 9 -16 8 0 8 21 1 40 -1 3 -2 14 -1 25 0
13 -4 9 -14 -12 -12 -26 -21 -33 -43 -33 -43 0 -54 13 -54 60 1 79 65 104 94
37 l13 -32 5 40 c6 50 1 105 -11 105 -5 0 -9 -13 -9 -30z"/>
<path d="M482 348 c-23 -61 -39 -114 -36 -117 7 -7 25 21 21 34 -2 5 4 18 14
28 13 14 29 18 72 16 31 -1 54 -6 52 -10 -8 -13 17 -69 31 -69 8 0 11 6 8 15
-4 8 -9 15 -13 15 -4 0 -8 6 -8 13 0 22 -56 157 -65 157 -11 0 -11 0 7 -50 8
-23 15 -47 15 -52 0 -5 -21 -8 -48 -7 l-47 2 22 48 c13 27 22 54 21 61 -2 8 4
12 16 10 11 -2 15 1 11 7 -16 27 -34 3 -73 -101z"/>
<path d="M970 450 c0 -5 5 -10 10 -10 6 0 10 5 10 10 0 6 -4 10 -10 10 -5 0
-10 -4 -10 -10z"/>
<path d="M1395 345 c0 -63 4 -114 9 -112 5 2 9 48 8 102 0 123 0 125 -9 125
-5 0 -8 -52 -8 -115z"/>
<path d="M1478 444 c-5 -4 -8 -15 -8 -25 0 -9 -6 -20 -12 -23 -10 -5 -10 -7 0
-12 7 -3 12 -27 12 -62 1 -60 16 -92 44 -92 23 0 20 17 -4 23 -15 4 -20 14
-21 44 0 21 -2 50 -3 64 -1 20 2 25 16 21 10 -2 18 1 18 7 0 6 -6 11 -14 11
-8 0 -16 12 -18 26 -2 14 -6 22 -10 18z"/>
<path d="M215 374 c-33 -36 -33 -87 0 -119 31 -32 69 -32 103 0 18 17 22 25
12 25 -8 0 -21 -9 -27 -19 -11 -17 -17 -18 -53 -9 -22 6 -38 13 -35 16 2 3 0
11 -6 18 -15 18 -1 23 71 26 65 4 76 23 36 63 -33 33 -70 32 -101 -1z m91 -9
c31 -29 25 -32 -52 -37 l-52 -3 14 27 c12 23 25 32 56 37 4 0 19 -10 34 -24z"/>
<path d="M692 380 c-32 -30 -30 -93 3 -126 27 -27 54 -26 87 3 15 13 16 12 8
-21 -4 -20 -5 -36 -1 -37 3 0 -3 -4 -14 -9 -32 -14 -72 -11 -79 5 -3 8 -10 15
-15 15 -20 0 1 -29 28 -38 33 -12 84 7 95 33 10 27 7 195 -4 195 -5 0 -10 -5
-10 -10 0 -7 -6 -7 -19 0 -30 15 -55 12 -79 -10z m87 -14 c8 -10 15 -46 12
-73 -4 -40 -72 -58 -91 -24 -15 29 -12 82 5 101 17 18 57 16 74 -4z"/>
<path d="M860 315 c0 -101 17 -114 22 -17 4 74 0 102 -13 102 -5 0 -9 -38 -9
-85z"/>
<path d="M897 387 c-4 -10 2 -13 19 -9 13 2 24 8 24 13 0 14 -37 10 -43 -4z"/>
<path d="M970 315 c0 -50 4 -85 10 -85 6 0 10 35 10 85 0 50 -4 85 -10 85 -6
0 -10 -35 -10 -85z"/>
<path d="M1062 377 c-45 -48 -16 -147 44 -147 27 0 64 28 63 48 0 14 -3 13
-16 -6 -20 -28 -68 -30 -83 -3 -5 11 -10 36 -10 55 0 45 36 74 69 56 12 -6 21
-15 21 -20 0 -6 4 -10 9 -10 14 0 7 30 -10 41 -25 16 -65 10 -87 -14z"/>
<path d="M1211 333 c2 -72 18 -103 55 -103 12 0 26 6 33 13 8 11 4 13 -20 9
-41 -6 -49 8 -49 86 0 36 -4 62 -10 62 -7 0 -10 -26 -9 -67z"/>
<path d="M1320 330 c0 -38 4 -70 9 -70 5 0 9 32 10 70 0 41 -3 70 -9 70 -6 0
-10 -30 -10 -70z"/>
<path d="M1560 331 c0 -50 4 -74 16 -85 20 -21 53 -20 76 1 17 15 18 15 18 0
0 -10 5 -17 10 -17 6 0 10 35 10 85 0 54 -4 85 -11 85 -6 0 -10 -22 -8 -59 3
-69 -10 -91 -51 -91 -34 0 -40 14 -40 91 0 33 -4 59 -10 59 -6 0 -10 -30 -10
-69z"/>
<path d="M1746 318 c1 -97 20 -119 21 -24 1 75 6 86 39 86 13 0 24 5 24 10 0
16 -32 12 -52 -7 -17 -15 -18 -15 -18 0 0 10 -3 17 -7 17 -5 0 -8 -37 -7 -82z"/>
<path d="M1871 381 c-12 -11 -18 -22 -12 -25 5 -4 14 0 18 9 9 15 29 19 71 17
13 -1 20 -6 17 -12 -4 -6 -2 -17 5 -25 8 -10 8 -15 -1 -21 -7 -4 -9 -3 -6 3 7
11 -79 -6 -100 -20 -16 -10 -17 -49 -1 -65 16 -16 60 -15 84 3 21 16 12 20
-15 6 -25 -14 -58 -3 -64 20 -6 23 14 36 63 41 31 3 35 0 36 -22 1 -48 4 -60
14 -60 6 0 10 28 10 65 0 52 -4 69 -20 85 -25 25 -70 26 -99 1z"/>
<path d="M1320 240 c0 -5 5 -10 10 -10 6 0 10 5 10 10 0 6 -4 10 -10 10 -5 0
-10 -4 -10 -10z"/>
</g>
</svg>
