<?xml version="1.0" standalone="no"?>
<!DOCTYPE svg PUBLIC "-//W3C//DTD SVG 20010904//EN"
 "http://www.w3.org/TR/2001/REC-SVG-20010904/DTD/svg10.dtd">
<svg version="1.0" xmlns="http://www.w3.org/2000/svg"
 width="119.000000pt" height="170.000000pt" viewBox="0 0 119.000000 170.000000"
 preserveAspectRatio="xMidYMid meet">

<g transform="translate(0.000000,170.000000) scale(0.100000,-0.100000)"
fill="#000000" stroke="none">
<path d="M393 1690 c-44 -18 -57 -81 -24 -121 42 -52 131 -17 131 51 0 53 -57
91 -107 70z"/>
<path d="M540 1625 l0 -65 65 0 65 0 0 53 c0 29 -5 58 -12 65 -7 7 -36 12 -65
12 l-53 0 0 -65z"/>
<path d="M717 1683 c-4 -3 -7 -33 -7 -65 l0 -58 60 0 60 0 0 65 0 65 -53 0
c-30 0 -57 -3 -60 -7z"/>
<path d="M370 1448 l0 -58 55 0 55 0 0 58 0 57 -55 0 -55 0 0 -57z"/>
<path d="M540 1448 l0 -56 65 -4 65 -3 0 57 0 56 -65 4 -65 3 0 -57z"/>
<path d="M370 1265 l0 -65 55 0 55 0 0 65 0 65 -55 0 -55 0 0 -65z"/>
<path d="M540 1265 l0 -65 53 0 c29 0 58 5 65 12 7 7 12 36 12 65 l0 53 -65 0
-65 0 0 -65z"/>
<path d="M712 1268 l3 -63 58 -3 57 -3 0 66 0 65 -60 0 -61 0 3 -62z"/>
<path d="M370 1100 l0 -60 55 0 55 0 0 60 0 60 -55 0 -55 0 0 -60z"/>
<path d="M540 1101 l0 -59 65 -4 66 -3 -3 60 -3 60 -62 3 -63 3 0 -60z"/>
<path d="M90 850 c0 -56 3 -70 15 -70 12 0 15 14 15 70 0 56 -3 70 -15 70 -12
0 -15 -14 -15 -70z"/>
<path d="M150 851 c0 -56 3 -71 15 -71 11 0 15 13 15 53 l0 52 28 -50 c18 -34
34 -51 50 -53 21 -3 22 0 22 67 0 55 -3 71 -14 71 -11 0 -16 -14 -18 -47 l-3
-48 -25 45 c-16 29 -33 46 -48 48 -21 3 -22 0 -22 -67z"/>
<path d="M317 913 c-17 -16 -5 -53 24 -74 34 -24 25 -39 -18 -31 -19 4 -24 1
-21 -9 9 -27 81 -23 92 6 9 23 -4 44 -36 61 -33 17 -28 39 8 30 17 -5 24 -2
24 9 0 10 -10 15 -33 15 -19 0 -37 -3 -40 -7z"/>
<path d="M410 911 c0 -5 9 -11 20 -14 17 -4 20 -14 20 -61 0 -43 3 -56 15 -56
12 0 15 13 15 60 0 47 3 60 15 60 8 0 15 5 15 10 0 6 -22 10 -50 10 -27 0 -50
-4 -50 -9z"/>
<path d="M540 850 c0 -56 3 -70 15 -70 12 0 15 14 15 70 0 56 -3 70 -15 70
-12 0 -15 -14 -15 -70z"/>
<path d="M590 911 c0 -5 9 -11 20 -14 17 -4 20 -14 20 -61 0 -43 3 -56 15 -56
12 0 15 13 15 60 0 47 3 60 15 60 8 0 15 5 15 10 0 6 -22 10 -50 10 -27 0 -50
-4 -50 -9z"/>
<path d="M718 863 c2 -32 9 -64 14 -70 15 -18 63 -16 82 3 22 21 23 124 1 124
-11 0 -15 -13 -15 -54 0 -35 -5 -56 -12 -59 -28 -9 -38 6 -38 59 0 45 -3 54
-17 54 -16 0 -18 -8 -15 -57z"/>
<path d="M850 910 c0 -5 9 -10 20 -10 18 0 20 -7 20 -60 0 -47 3 -60 15 -60
12 0 15 13 15 60 0 53 2 60 20 60 11 0 20 5 20 10 0 6 -25 10 -55 10 -30 0
-55 -4 -55 -10z"/>
<path d="M986 898 c-36 -50 -5 -118 52 -118 39 0 62 28 62 76 0 50 -14 64 -61
64 -28 0 -42 -6 -53 -22z m82 -36 c3 -32 -11 -62 -29 -62 -31 0 -51 64 -27 88
24 24 53 10 56 -26z"/>
<path d="M180 680 c0 -56 3 -70 15 -70 9 0 15 9 15 24 0 18 6 26 22 28 32 5
35 28 4 28 -19 0 -26 5 -26 20 0 15 7 20 25 20 14 0 25 5 25 10 0 6 -18 10
-40 10 l-40 0 0 -70z"/>
<path d="M290 680 l0 -70 40 0 c22 0 40 5 40 10 0 6 -11 10 -25 10 -18 0 -25
5 -25 20 0 15 7 20 25 20 14 0 25 5 25 10 0 6 -11 10 -25 10 -18 0 -25 5 -25
20 0 15 7 20 25 20 14 0 25 5 25 10 0 6 -18 10 -40 10 l-40 0 0 -70z"/>
<path d="M400 680 l0 -70 38 0 c47 0 75 27 75 72 0 39 -33 68 -79 68 l-34 0 0
-70z m61 40 c34 -19 20 -90 -18 -90 -9 0 -13 16 -13 50 0 54 1 55 31 40z"/>
<path d="M550 680 l0 -70 40 0 c22 0 40 5 40 10 0 6 -10 10 -23 10 -13 0 -26
3 -30 6 -11 11 5 34 24 34 27 0 24 18 -3 22 -33 4 -29 32 5 36 42 5 32 22 -13
22 l-40 0 0 -70z"/>
<path d="M660 680 c0 -56 3 -70 15 -70 9 0 15 9 15 25 0 14 4 25 8 25 5 0 15
-11 22 -25 7 -14 19 -25 27 -25 17 0 16 5 -3 34 -10 16 -12 26 -5 31 15 8 14
48 -1 63 -7 7 -27 12 -45 12 l-33 0 0 -70z m60 24 c0 -8 -7 -14 -15 -14 -8 0
-15 9 -15 20 0 13 5 18 15 14 8 -4 15 -12 15 -20z"/>
<path d="M815 738 c-2 -7 -13 -38 -25 -68 -24 -66 -23 -60 -5 -60 9 0 18 7 21
15 4 8 17 15 30 15 14 0 27 -7 30 -15 6 -15 34 -21 34 -7 0 4 -10 35 -22 70
-17 45 -28 62 -41 62 -10 0 -20 -6 -22 -12z m35 -55 c0 -7 -7 -13 -16 -13 -11
0 -14 5 -10 16 3 9 6 21 6 27 0 16 20 -14 20 -30z"/>
<path d="M920 680 l0 -70 45 0 c49 0 62 17 18 22 -27 3 -28 6 -31 61 -2 42 -7
57 -17 57 -12 0 -15 -16 -15 -70z"/>
<path d="M292 533 c13 -3 18 -18 21 -56 l3 -52 2 52 c2 40 6 53 20 56 9 3 -1
5 -23 5 -22 0 -32 -2 -23 -5z"/>
<path d="M688 517 c-7 -22 7 -80 20 -83 7 -1 8 0 2 3 -12 6 -13 60 -1 65 5 2
3 8 -4 15 -10 9 -14 9 -17 0z"/>
<path d="M354 485 c-12 -49 48 -78 65 -32 12 30 -4 57 -34 57 -18 0 -26 -7
-31 -25z m54 -12 c-4 -37 -32 -37 -36 0 -3 22 1 27 18 27 17 0 21 -5 18 -27z"/>
<path d="M444 485 c-8 -31 11 -55 40 -54 l21 2 -22 4 c-24 5 -35 25 -27 47 3
8 15 17 27 19 18 3 17 5 -5 6 -22 1 -29 -4 -34 -24z"/>
<path d="M538 503 c12 -2 22 -8 22 -13 0 -5 -10 -10 -22 -12 -35 -5 -31 -43 5
-44 25 -1 27 2 27 37 0 36 -2 39 -27 38 -24 -2 -25 -2 -5 -6z m22 -42 c0 -14
-18 -23 -30 -16 -6 4 -8 11 -5 16 8 12 35 12 35 0z"/>
<path d="M602 468 l1 -43 4 38 c3 28 9 37 23 37 14 0 20 -9 23 -37 l4 -38 1
43 c2 40 1 42 -28 42 -29 0 -30 -2 -28 -42z"/>
<path d="M743 470 c0 -25 2 -35 4 -22 2 12 2 32 0 45 -2 12 -4 2 -4 -23z"/>
<path d="M782 468 l1 -43 4 38 c3 28 9 37 23 37 14 0 20 -9 23 -37 l4 -38 1
43 c2 40 1 42 -28 42 -29 0 -30 -2 -28 -42z"/>
<path d="M864 498 c-4 -7 2 -18 14 -26 28 -18 28 -29 0 -35 -20 -4 -20 -4 4
-6 40 -2 46 19 13 45 l-28 22 24 5 c22 4 22 4 2 6 -12 0 -25 -4 -29 -11z"/>
<path d="M337 302 c-35 -38 -10 -93 41 -91 26 1 25 1 -5 10 -29 8 -33 14 -33
44 0 25 5 35 20 40 11 3 24 3 30 0 5 -3 10 -1 10 4 0 18 -46 12 -63 -7z"/>
<path d="M438 283 c12 -2 22 -8 22 -11 0 -4 -10 -12 -22 -17 -35 -15 -29 -40
10 -40 32 -1 33 1 30 35 -3 31 -6 35 -33 37 -20 1 -23 0 -7 -4z m20 -45 c-6
-18 -28 -21 -28 -4 0 9 7 16 16 16 9 0 14 -5 12 -12z"/>
<path d="M501 247 l2 -42 6 35 c4 22 12 36 24 38 14 3 17 -4 18 -35 l2 -38 6
35 c9 51 38 53 44 3 l4 -38 1 41 2 42 -55 1 -55 0 1 -42z"/>
<path d="M641 233 c1 -32 4 -48 6 -37 3 16 9 20 23 17 14 -4 23 2 31 21 15 32
-2 56 -37 56 -23 0 -24 -3 -23 -57z m47 20 c-2 -17 -9 -28 -18 -28 -9 0 -16
11 -18 28 -3 22 1 27 18 27 17 0 21 -5 18 -27z"/>
<path d="M733 255 c2 -36 5 -40 30 -41 25 -1 27 1 26 40 l-2 41 -6 -35 c-4
-22 -12 -35 -21 -35 -9 0 -18 13 -22 35 l-6 35 1 -40z"/>
<path d="M817 283 c-13 -12 -7 -22 21 -37 20 -11 23 -16 12 -19 -8 -3 -22 -8
-30 -10 -8 -3 -3 -6 12 -6 36 -1 46 18 20 40 -27 21 -27 26 -4 32 14 4 13 5
-4 6 -11 0 -24 -2 -27 -6z"/>
<path d="M276 131 c-4 -5 -13 -29 -21 -53 -12 -34 -12 -39 -1 -25 16 21 56 23
56 2 0 -8 4 -15 10 -15 5 0 3 19 -7 43 -19 50 -29 62 -37 48z m24 -43 c0 -5
-7 -8 -15 -8 -17 0 -18 2 -9 25 5 13 8 14 15 3 5 -7 9 -16 9 -20z"/>
<path d="M737 122 c-16 -33 1 -92 26 -92 7 0 7 4 -1 12 -15 15 -16 58 -2 58 6
0 10 4 10 9 0 11 -28 23 -33 13z"/>
<path d="M358 113 c-13 -3 -18 -15 -18 -39 0 -19 5 -34 10 -34 6 0 10 12 10
26 0 15 8 33 18 40 17 13 12 15 -20 7z"/>
<path d="M415 110 c-3 -5 3 -10 15 -10 12 0 18 -4 15 -10 -3 -5 -14 -10 -25
-10 -22 0 -33 -25 -16 -39 22 -18 56 -1 56 28 0 38 -30 65 -45 41z m25 -55
c-12 -15 -30 -12 -30 6 0 5 10 9 21 9 18 0 19 -2 9 -15z"/>
<path d="M491 111 c-7 -5 -10 -20 -8 -37 2 -16 0 -34 -5 -41 -22 -28 34 -47
60 -21 15 15 -3 38 -32 38 -19 0 -19 1 4 13 31 15 39 52 12 54 -10 1 -24 -2
-31 -6z m29 -21 c0 -21 -15 -27 -25 -10 -7 12 2 30 16 30 5 0 9 -9 9 -20z m10
-65 c0 -8 -9 -15 -20 -15 -11 0 -20 7 -20 15 0 8 9 15 20 15 11 0 20 -7 20
-15z"/>
<path d="M665 110 c-3 -5 3 -10 14 -10 12 0 21 -4 21 -10 0 -5 -9 -10 -20 -10
-23 0 -38 -26 -24 -40 5 -5 19 -7 32 -4 38 11 27 84 -13 84 -2 0 -7 -4 -10
-10z m25 -55 c-12 -15 -30 -12 -30 6 0 5 10 9 21 9 18 0 19 -2 9 -15z"/>
<path d="M838 113 c-13 -3 -18 -15 -18 -39 0 -19 5 -34 10 -34 6 0 10 14 10
30 0 23 5 30 19 30 15 0 21 -8 24 -32 l4 -33 1 36 c2 25 -3 39 -14 43 -9 3
-16 5 -17 5 -1 -1 -10 -3 -19 -6z"/>
<path d="M921 111 c-18 -11 -7 -41 15 -41 8 0 14 -6 11 -12 -2 -7 -12 -12 -22
-10 -10 2 -14 -1 -10 -7 9 -15 30 -14 44 3 10 12 7 18 -13 31 -27 18 -27 38 1
28 11 -4 14 -3 9 5 -9 14 -16 15 -35 3z"/>
<path d="M561 84 c-1 -37 17 -55 47 -47 18 4 22 12 21 42 -2 29 -3 31 -6 9 -9
-56 -45 -55 -56 2 -4 22 -4 21 -6 -6z"/>
<path d="M793 75 c0 -22 2 -30 4 -17 2 12 2 30 0 40 -3 9 -5 -1 -4 -23z"/>
</g>
</svg>
