<?xml version="1.0" standalone="no"?>
<!DOCTYPE svg PUBLIC "-//W3C//DTD SVG 20010904//EN"
 "http://www.w3.org/TR/2001/REC-SVG-20010904/DTD/svg10.dtd">
<svg version="1.0" xmlns="http://www.w3.org/2000/svg"
 width="4096.000000pt" height="1479.000000pt" viewBox="0 0 4096.000000 1479.000000"
 preserveAspectRatio="xMidYMid meet">

<g transform="translate(0.000000,1479.000000) scale(0.100000,-0.100000)"
fill="#000000" stroke="none">
<path d="M7024 14684 c-216 -463 -364 -935 -439 -1405 l-17 -106 -127 -11
c-699 -66 -1421 -260 -2090 -563 -460 -209 -943 -503 -1334 -814 -59 -47 -111
-85 -116 -85 -5 0 -29 11 -52 25 -90 51 -165 70 -284 70 -115 0 -170 -13 -266
-61 -113 -57 -227 -186 -269 -307 -53 -151 -44 -314 25 -454 l36 -72 -98 -118
c-804 -977 -1310 -2174 -1453 -3437 -11 -99 -21 -180 -22 -181 -2 -1 -34 -9
-71 -18 -220 -53 -386 -223 -432 -442 -27 -130 -11 -248 51 -373 41 -84 131
-183 208 -227 59 -34 168 -75 201 -75 40 0 52 -23 59 -112 11 -133 54 -418 92
-608 227 -1141 759 -2209 1532 -3078 l100 -113 -34 -57 c-55 -90 -69 -150 -69
-287 0 -106 3 -128 28 -195 55 -150 183 -279 332 -336 54 -21 94 -28 175 -31
151 -7 245 20 363 103 26 19 49 34 52 34 3 0 47 -31 98 -69 51 -38 171 -120
267 -183 836 -548 1787 -902 2763 -1027 141 -18 283 -31 530 -47 53 -3 97 -10
97 -15 0 -5 95 -9 220 -9 l220 0 0 565 0 565 23 5 c18 4 717 110 779 118 12 1
90 -112 274 -398 142 -220 259 -402 260 -404 4 -4 59 18 449 179 171 70 481
199 690 285 209 86 381 158 383 160 1 1 -32 211 -73 465 -42 254 -73 466 -68
470 49 44 911 778 919 783 8 5 619 -228 890 -340 6 -2 152 204 324 459 173
255 369 544 436 643 l122 180 -318 369 c-294 341 -317 371 -309 395 5 14 85
267 179 561 93 294 174 542 179 550 6 10 149 44 472 110 l464 96 3 791 c2 748
1 792 -15 797 -10 3 -220 44 -468 91 -247 47 -451 88 -453 90 -2 2 -84 259
-183 572 -99 312 -181 573 -183 578 -2 6 139 177 314 379 l318 369 -160 236
c-88 130 -283 419 -435 643 -251 372 -277 406 -296 398 -12 -4 -212 -83 -445
-174 -232 -91 -425 -166 -427 -166 -4 0 -879 744 -924 785 -11 11 0 88 64 475
42 254 75 463 73 464 -1 2 -208 88 -458 191 -250 103 -589 243 -754 311 -164
68 -302 122 -306 119 -4 -3 -124 -185 -266 -405 -242 -377 -260 -400 -284
-396 -14 3 -110 15 -215 26 -104 12 -199 23 -211 25 -21 5 -21 9 -27 342 -6
339 -20 525 -57 792 -71 495 -216 987 -435 1476 -37 83 -69 152 -71 154 -2 2
-24 -41 -50 -95z m-491 -1810 c-35 -434 -31 -931 12 -1449 16 -190 61 -612 71
-656 5 -26 4 -27 -68 -39 -125 -20 -268 -50 -410 -86 -76 -19 -144 -34 -151
-34 -14 0 -162 193 -254 330 -141 212 -296 485 -505 893 l-123 237 -24 -47
c-32 -63 -74 -166 -117 -283 -141 -386 -181 -817 -108 -1180 19 -96 68 -256
100 -329 23 -51 24 -57 8 -66 -172 -102 -442 -295 -598 -427 l-89 -75 -56 28
c-205 104 -464 70 -637 -84 -216 -193 -253 -532 -83 -756 40 -53 41 -55 25
-80 -53 -83 -176 -309 -226 -414 -155 -328 -272 -697 -333 -1056 l-23 -134
-77 -18 c-202 -48 -352 -181 -418 -372 -24 -69 -29 -98 -29 -183 0 -188 74
-344 215 -451 78 -59 142 -89 237 -110 l77 -16 6 -46 c14 -99 67 -346 105
-484 117 -425 306 -840 552 -1206 l57 -84 -18 -36 c-52 -100 -67 -266 -36
-385 54 -206 236 -377 442 -417 82 -15 213 -7 287 18 l58 21 94 -74 c233 -182
444 -316 704 -448 495 -252 1003 -393 1578 -441 l82 -7 -2 -1072 -3 -1071 -80
3 c-365 14 -904 101 -1320 212 -778 209 -1476 541 -2117 1007 l-86 63 14 48
c24 77 28 188 10 272 -72 341 -420 540 -746 426 l-71 -24 -48 51 c-136 145
-328 382 -477 592 -575 804 -956 1744 -1103 2720 -28 182 -50 399 -42 403 4 1
36 19 70 40 127 74 229 208 266 348 8 33 15 100 15 154 0 78 -5 109 -29 177
-49 141 -148 256 -275 320 -28 14 -52 27 -54 28 -6 5 41 380 68 542 178 1058
625 2052 1303 2896 66 82 125 151 131 153 7 3 43 -7 82 -22 92 -35 239 -44
333 -19 340 89 523 438 398 762 l-21 56 40 34 c65 58 291 225 424 316 737 502
1604 851 2478 997 181 31 488 70 507 65 6 -1 9 -15 8 -31z m2792 -749 c259
-103 474 -191 479 -196 6 -5 -26 -171 -77 -411 -48 -222 -87 -410 -87 -419 0
-13 1108 -959 1202 -1027 17 -12 65 6 413 152 217 91 398 167 404 168 9 3 631
-913 631 -930 0 -4 -16 -24 -36 -43 -20 -18 -161 -163 -315 -320 l-279 -287
246 -723 c135 -398 250 -728 254 -733 6 -5 832 -164 868 -166 1 0 2 -260 2
-577 l0 -578 -431 -82 c-238 -45 -435 -85 -439 -90 -4 -4 -119 -334 -254 -732
l-247 -725 103 -105 c57 -58 199 -203 317 -323 132 -133 212 -221 208 -230
-17 -42 -620 -922 -630 -920 -7 2 -189 78 -404 169 l-392 165 -25 -20 c-174
-136 -1196 -1009 -1196 -1021 0 -9 39 -197 87 -419 52 -242 83 -406 77 -412
-5 -5 -247 -103 -539 -219 -381 -151 -532 -207 -537 -198 -4 7 -110 174 -236
372 -207 326 -231 360 -253 357 -40 -6 -892 -152 -916 -157 l-23 -5 0 495 0
495 35 0 c20 0 101 7 182 15 1244 131 2354 802 3050 1845 315 473 527 999 632
1573 10 53 15 99 11 102 -4 2 -169 34 -366 70 -491 90 -1109 203 -1469 270
-165 30 -356 65 -424 77 l-123 21 7 81 c3 45 6 132 7 194 0 61 3 112 7 112 6
0 236 39 491 84 80 14 226 39 325 56 198 34 552 96 770 135 77 13 297 52 489
85 192 33 351 61 353 63 10 10 -73 359 -127 531 -307 996 -988 1889 -1852
2431 -43 27 -78 51 -78 54 0 3 18 56 39 116 168 477 110 1042 -168 1640 -41
87 -43 89 -55 65 -298 -579 -440 -837 -593 -1070 -111 -168 -222 -320 -235
-320 -6 0 -44 9 -86 20 -116 29 -343 69 -477 83 -109 12 -120 15 -118 32 1 11
15 128 32 260 16 132 38 331 47 443 15 169 21 202 34 202 8 -1 150 -20 315
-44 165 -24 303 -42 306 -40 3 2 111 169 240 373 l234 369 60 -23 c33 -13 272
-107 530 -210z m-1555 -1671 c80 -13 163 -29 185 -35 l40 -11 -90 -87 c-50
-47 -129 -117 -175 -154 -102 -82 -338 -243 -345 -235 -4 4 69 447 90 544 4
19 8 20 77 12 40 -5 138 -20 218 -34z m-1075 -236 c22 -148 38 -268 35 -268
-13 0 -216 144 -305 215 -92 74 -268 235 -263 240 5 5 259 55 353 70 152 23
132 52 180 -257z m2463 -297 c850 -533 1472 -1385 1717 -2352 19 -75 35 -143
35 -151 0 -10 -241 -56 -1032 -197 -568 -100 -1042 -185 -1053 -187 -19 -5
-25 8 -63 121 -118 357 -348 670 -653 888 -184 132 -462 252 -674 291 -49 9
-100 19 -112 22 -23 4 -23 5 -23 217 l0 212 153 59 c454 176 813 369 1122 605
130 99 342 311 430 429 37 50 70 92 72 92 2 0 38 -22 81 -49z m-4011 -39 c248
-370 665 -693 1177 -912 100 -42 292 -110 491 -172 l40 -13 0 -215 0 -214 -70
-12 c-253 -43 -505 -148 -727 -304 -119 -83 -324 -288 -410 -410 -73 -102
-169 -282 -213 -396 l-27 -72 -47 -6 c-185 -25 -351 -149 -432 -321 -79 -170
-77 -333 7 -505 69 -139 216 -255 375 -294 36 -9 74 -16 85 -16 15 0 28 -21
58 -92 55 -132 137 -275 221 -387 91 -120 271 -295 395 -383 119 -85 322 -187
461 -232 82 -27 292 -76 325 -76 2 0 4 -484 4 -1075 l0 -1075 -37 0 c-64 0
-301 30 -443 56 -641 118 -1226 386 -1746 800 -12 9 -8 21 21 70 228 379 -47
864 -490 864 -88 0 -178 -21 -255 -60 l-59 -30 -82 132 c-267 429 -448 902
-534 1392 -14 77 -24 140 -22 141 1 1 27 15 57 31 129 68 242 224 275 379 27
130 11 247 -52 375 -43 89 -138 189 -226 239 l-58 33 7 46 c65 471 249 996
497 1415 30 51 44 66 56 62 61 -24 153 -37 226 -32 291 20 507 231 540 527 8
76 -17 207 -55 288 l-31 67 24 20 c13 11 62 52 108 91 152 128 475 355 503
354 6 -1 34 -35 63 -78z m1713 -2256 l0 -464 -57 -32 c-118 -67 -221 -190
-265 -318 -33 -96 -33 -258 0 -354 46 -132 142 -249 260 -315 l62 -35 0 -495
0 -496 -50 7 c-126 17 -329 92 -476 176 -253 146 -482 394 -609 662 -25 52
-45 98 -45 100 0 3 26 21 58 41 123 76 222 208 257 343 19 75 19 213 0 288
-37 143 -149 289 -267 351 -66 34 -66 26 -8 150 141 305 394 566 697 718 110
56 351 133 426 136 16 1 17 -27 17 -463z m617 429 c552 -144 981 -611 1090
-1186 26 -141 24 -420 -5 -555 -63 -292 -194 -543 -392 -748 -176 -183 -376
-312 -599 -386 -88 -30 -216 -60 -252 -60 -19 0 -19 12 -19 494 l0 494 44 26
c123 72 210 172 261 301 37 92 46 237 20 335 -37 144 -138 281 -260 351 l-60
35 -3 468 -2 468 42 -7 c24 -3 85 -17 135 -30z m2268 -2065 c1201 -217 1157
-209 1161 -213 3 -2 -12 -67 -31 -143 -327 -1276 -1280 -2306 -2525 -2732
-197 -67 -407 -122 -585 -152 -143 -24 -363 -50 -422 -50 l-43 0 0 1074 0
1074 73 12 c558 90 1055 461 1302 974 44 93 67 151 121 314 2 9 13 12 31 8 16
-3 429 -78 918 -166z"/>
<path d="M14703 9453 c3 -1143 7 -1612 15 -1673 48 -343 119 -563 240 -741
261 -384 677 -613 1247 -685 159 -20 524 -23 675 -5 419 49 746 192 995 436
263 257 371 529 415 1050 6 74 10 711 10 1663 l0 1542 -412 -2 -413 -3 -6
-1610 c-3 -885 -9 -1626 -13 -1645 -4 -19 -14 -71 -22 -115 -59 -313 -180
-492 -408 -604 -208 -102 -483 -125 -732 -60 -154 40 -321 139 -413 246 -121
141 -196 388 -221 728 -6 86 -10 702 -10 1603 l0 1462 -475 0 -476 0 4 -1587z"/>
<path d="M19420 8745 l0 -2295 475 0 475 0 0 965 0 965 785 0 785 0 0 315 0
315 -785 0 -785 0 0 700 0 700 955 0 955 0 0 315 0 315 -1430 0 -1430 0 0
-2295z"/>
<path d="M23070 8745 l0 -2295 450 0 450 0 0 935 0 935 264 0 264 0 569 -935
568 -934 578 -1 c317 0 577 3 577 6 0 3 -333 480 -740 1061 -407 580 -742
1059 -743 1064 -1 5 42 33 95 61 287 155 491 361 632 638 218 424 203 911 -37
1272 -170 256 -421 403 -777 457 -161 25 -406 31 -1252 31 l-898 0 0 -2295z
m1605 1641 c207 -37 310 -80 397 -169 114 -116 165 -268 155 -466 -7 -133 -30
-228 -83 -334 -85 -170 -192 -282 -337 -352 -162 -78 -304 -104 -614 -112
l-223 -6 0 733 0 733 313 -6 c201 -4 340 -11 392 -21z"/>
<path d="M27460 8745 l0 -2295 450 0 450 0 0 935 0 935 263 0 264 0 569 -935
569 -935 577 0 c318 0 578 2 578 5 0 2 -333 479 -740 1059 -407 580 -742 1061
-745 1068 -2 8 24 27 73 50 272 131 521 378 662 658 185 368 194 804 25 1141
-51 103 -100 174 -175 253 -165 175 -361 273 -640 320 -182 30 -386 36 -1282
36 l-898 0 0 -2295z m1605 1641 c256 -45 367 -107 467 -261 65 -99 83 -176 82
-340 -1 -121 -4 -152 -28 -228 -63 -210 -200 -393 -356 -476 -168 -90 -397
-131 -722 -131 l-148 0 0 731 0 732 313 -6 c201 -4 340 -11 392 -21z"/>
<path d="M32400 8953 c0 -2099 -2 -2225 -36 -2386 -40 -191 -176 -328 -371
-373 -120 -28 -386 -18 -583 22 -88 18 -261 67 -314 89 -21 9 -39 15 -40 13 0
-2 0 -155 2 -340 l3 -338 37 -9 c20 -6 93 -21 162 -35 378 -76 775 -86 1081
-26 361 70 651 257 822 531 59 94 90 172 122 297 73 292 76 427 73 2722 l-3
1915 -477 3 -478 2 0 -2087z"/>
<path d="M21356 4869 c-112 -17 -205 -84 -256 -185 -21 -42 -25 -63 -25 -139
0 -74 4 -98 23 -133 37 -70 114 -134 280 -233 85 -50 170 -105 189 -122 108
-95 96 -253 -25 -324 -44 -26 -55 -28 -152 -27 -97 0 -112 3 -200 38 -52 20
-103 40 -112 43 -16 5 -18 -3 -18 -80 l0 -85 93 -22 c179 -42 350 -37 463 14
71 33 125 84 165 158 32 58 34 70 34 153 0 78 -4 97 -28 147 -39 79 -109 139
-284 239 -167 96 -245 163 -262 224 -15 55 1 107 49 155 72 72 192 76 370 11
l80 -30 0 79 0 79 -39 11 c-112 30 -259 42 -345 29z"/>
<path d="M15007 4844 c-11 -11 -8 -810 3 -902 14 -112 42 -181 96 -241 85 -94
223 -139 398 -128 150 9 247 58 321 161 61 86 65 126 65 651 l0 466 -72 -3
-73 -3 -5 -480 c-5 -461 -6 -482 -26 -525 -44 -94 -124 -140 -244 -140 -91 0
-158 25 -210 78 -74 77 -73 69 -79 597 l-6 470 -80 3 c-45 1 -84 0 -88 -4z"/>
<path d="M16210 4225 l0 -625 75 0 75 0 2 478 3 479 310 -476 310 -476 88 -3
87 -3 0 626 0 625 -75 0 -75 0 -2 -482 -3 -482 -314 482 -313 482 -84 0 -84 0
0 -625z"/>
<path d="M17487 4844 c-4 -4 -7 -286 -7 -626 l0 -618 90 0 90 0 -2 623 -3 622
-80 3 c-45 1 -84 0 -88 -4z"/>
<path d="M17860 4836 c0 -10 174 -478 436 -1168 l26 -68 82 0 83 0 222 613
c121 336 221 618 221 625 0 10 -18 12 -72 10 l-72 -3 -185 -508 c-102 -279
-188 -504 -192 -500 -3 5 -88 226 -189 493 -100 267 -186 493 -191 503 -8 14
-24 17 -89 17 -61 0 -80 -3 -80 -14z"/>
<path d="M19110 4225 l0 -625 365 0 365 0 0 65 0 65 -280 0 -280 0 0 225 0
225 220 0 220 0 0 65 0 65 -217 2 -218 3 0 200 0 200 263 3 263 2 -3 63 -3 62
-347 3 -348 2 0 -625z"/>
<path d="M20050 4225 l0 -625 85 0 85 0 0 265 0 265 83 0 82 0 178 -265 178
-265 106 0 105 0 -15 23 c-8 12 -100 143 -206 291 l-191 269 52 29 c194 106
257 352 134 519 -70 95 -168 118 -498 119 l-178 0 0 -625z m370 485 c125 -16
190 -80 190 -186 0 -62 -14 -105 -53 -163 -44 -64 -113 -93 -239 -99 l-98 -5
0 232 0 231 63 0 c34 0 96 -5 137 -10z"/>
<path d="M22070 4225 l0 -625 85 0 85 0 0 625 0 625 -85 0 -85 0 0 -625z"/>
<path d="M22568 4845 c-5 -5 -8 -287 -8 -628 l0 -619 288 5 c315 5 355 11 465
69 33 18 84 59 120 97 113 121 167 275 167 482 0 312 -141 515 -400 574 -57
13 -141 18 -350 22 -151 3 -278 2 -282 -2z m552 -151 c79 -18 135 -50 184
-105 185 -204 138 -677 -78 -804 -67 -39 -161 -55 -333 -55 l-153 0 0 497 0
496 158 -7 c86 -3 186 -13 222 -22z"/>
<path d="M24201 4833 c-5 -10 -109 -270 -231 -578 -122 -308 -230 -582 -241
-608 l-19 -48 82 3 83 3 66 170 67 170 265 3 265 2 69 -175 68 -175 93 0 c50
0 92 2 92 5 0 11 -474 1221 -483 1233 -6 8 -37 12 -88 12 -64 0 -80 -3 -88
-17z m183 -492 c53 -133 96 -249 96 -257 0 -12 -35 -14 -204 -14 -113 0 -207
3 -209 8 -8 15 206 535 214 520 4 -7 51 -123 103 -257z"/>
<path d="M25050 4226 l0 -628 283 4 c224 4 294 8 342 22 194 54 329 198 387
413 28 105 30 308 5 403 -56 210 -189 343 -385 386 -46 10 -158 17 -349 21
l-283 6 0 -627z m445 484 c116 -12 184 -32 240 -71 112 -80 165 -213 165 -412
-1 -275 -113 -449 -315 -486 -32 -6 -128 -11 -212 -11 l-153 0 0 488 c0 269 3
492 7 495 9 10 152 8 268 -3z"/>
<path d="M26340 4225 l0 -625 365 0 365 0 0 65 0 65 -277 2 -278 3 -3 223 -2
222 220 0 220 0 0 65 0 65 -217 2 -218 3 0 200 0 200 263 3 263 2 -3 63 -3 62
-347 3 -348 2 0 -625z"/>
<path d="M27827 4843 c-4 -3 -7 -285 -7 -625 l0 -618 90 0 90 0 0 285 0 285
220 0 220 0 0 65 0 65 -220 0 -220 0 0 210 0 210 265 0 266 0 -3 63 -3 62
-346 3 c-190 1 -348 -1 -352 -5z"/>
<path d="M28750 4225 l0 -625 365 0 365 0 0 65 0 65 -280 0 -280 0 0 225 0
225 220 0 220 0 0 65 0 65 -220 0 -220 0 2 203 3 202 258 3 257 2 0 65 0 65
-345 0 -345 0 0 -625z"/>
<path d="M29688 4845 c-5 -5 -8 -287 -8 -628 l0 -619 288 5 c230 4 299 8 346
22 185 53 311 183 376 390 31 99 39 303 16 409 -48 214 -186 356 -391 402 -77
17 -614 33 -627 19z m552 -151 c115 -27 198 -94 247 -200 103 -226 44 -576
-119 -694 -70 -51 -124 -62 -325 -67 l-183 -5 0 497 0 498 158 -7 c86 -3 186
-13 222 -22z"/>
<path d="M30980 4225 l0 -625 365 0 365 0 0 65 0 65 -280 0 -280 0 0 225 0
225 218 2 217 3 3 63 3 62 -221 0 -220 0 0 205 0 205 260 0 260 0 0 65 0 65
-345 0 -345 0 0 -625z"/>
<path d="M31918 4844 c-5 -4 -8 -286 -8 -626 l0 -618 85 0 85 0 2 263 3 262
82 3 82 3 171 -253 c94 -139 175 -259 179 -266 5 -9 35 -12 113 -10 l105 3
-203 285 c-112 157 -203 288 -204 291 0 3 19 14 42 25 132 59 226 243 199 389
-13 68 -32 106 -83 161 -67 73 -123 85 -408 91 -129 3 -238 2 -242 -3z m459
-160 c89 -43 121 -128 89 -238 -12 -42 -29 -70 -64 -105 -56 -58 -91 -71 -224
-78 l-98 -6 0 225 c0 124 3 228 8 232 4 5 59 5 122 2 94 -5 125 -11 167 -32z"/>
<path d="M33332 4798 c-11 -29 -122 -309 -246 -621 -124 -313 -226 -570 -226
-573 0 -2 36 -4 79 -4 l79 0 69 173 69 172 265 0 264 0 69 -172 68 -173 94 0
93 0 -22 58 c-12 31 -121 311 -242 622 l-221 565 -86 3 -86 3 -20 -53z m294
-705 l6 -23 -211 0 c-116 0 -211 3 -211 7 0 7 199 513 208 527 4 8 193 -454
208 -511z"/>
<path d="M34197 4844 c-4 -4 -7 -286 -7 -626 l0 -618 365 0 365 0 0 65 0 65
-275 0 -275 0 -2 558 -3 557 -80 3 c-45 1 -84 0 -88 -4z"/>
<path d="M35660 4226 l0 -626 85 0 85 0 0 265 0 265 85 0 84 0 178 -265 178
-265 107 0 107 0 -176 248 c-96 136 -190 267 -207 291 -21 31 -27 45 -18 48 7
3 39 22 71 44 102 68 162 179 162 302 1 98 -24 161 -85 222 -77 77 -116 86
-413 92 l-243 6 0 -627z m455 465 c108 -48 141 -169 80 -291 -49 -96 -114
-129 -267 -137 l-98 -6 0 225 c0 124 3 228 8 232 13 15 234 -4 277 -23z"/>
<path d="M36744 4836 c-3 -8 -4 -220 -1 -473 3 -380 6 -467 19 -511 56 -184
205 -281 434 -282 233 0 387 110 423 305 7 37 11 229 11 517 l0 458 -75 0 -74
0 -3 -477 c-4 -518 -5 -526 -60 -589 -45 -52 -101 -76 -184 -82 -97 -6 -172
17 -229 69 -79 73 -79 70 -85 604 l-5 470 -83 3 c-65 2 -84 0 -88 -12z"/>
<path d="M37950 4225 l0 -625 85 0 85 0 0 265 0 265 83 0 83 0 179 -265 179
-265 103 0 c57 0 103 2 103 5 0 3 -90 132 -200 286 -110 154 -200 283 -200
287 0 4 22 19 48 34 194 109 253 377 117 535 -69 81 -173 103 -487 103 l-178
0 0 -625z m432 475 c48 -14 97 -55 114 -97 19 -43 18 -135 -1 -180 -46 -109
-123 -154 -277 -161 l-98 -5 0 233 0 233 113 -6 c61 -4 129 -12 149 -17z"/>
<path d="M39380 4828 c-37 -86 -480 -1211 -480 -1219 0 -5 35 -9 78 -9 l77 0
69 175 70 175 264 -2 265 -3 66 -170 67 -170 92 -3 c51 -1 92 1 92 6 0 5 -95
252 -211 548 -116 297 -224 574 -241 617 l-29 77 -85 0 c-78 0 -85 -2 -94 -22z
m186 -486 c56 -141 100 -260 97 -264 -8 -14 -413 -10 -413 4 0 20 204 528 210
522 3 -3 51 -121 106 -262z"/>
<path d="M40230 4225 l0 -625 365 0 365 0 0 65 0 65 -280 0 -280 0 0 560 0
560 -85 0 -85 0 0 -625z"/>
<path d="M16652 2890 c-243 -64 -393 -270 -417 -575 -13 -154 31 -350 105
-463 106 -165 259 -245 470 -246 163 0 285 44 390 140 108 101 169 235 189
417 34 304 -87 580 -301 685 -128 63 -295 79 -436 42z m332 -149 c156 -77 235
-264 223 -526 -13 -278 -125 -440 -328 -475 -168 -29 -327 54 -401 210 -76
161 -78 445 -3 608 70 153 187 225 356 219 74 -3 96 -8 153 -36z"/>
<path d="M20132 2890 c-105 -28 -183 -73 -252 -147 -69 -73 -110 -149 -142
-260 -30 -103 -32 -341 -4 -443 58 -209 177 -343 362 -406 66 -22 97 -27 189
-27 235 -1 413 102 507 293 59 121 72 184 73 355 0 168 -17 250 -76 368 -40
79 -134 176 -209 216 -129 69 -303 89 -448 51z m322 -144 c150 -74 230 -242
229 -486 0 -200 -42 -328 -138 -426 -69 -70 -141 -97 -255 -97 -111 0 -185 27
-251 93 -98 98 -142 231 -142 430 -1 188 39 314 128 409 79 84 154 112 287
107 70 -3 99 -9 142 -30z"/>
<path d="M30375 2904 c-234 -49 -373 -177 -447 -414 -20 -65 -23 -95 -23 -230
0 -175 12 -235 70 -356 92 -191 266 -295 495 -297 240 -1 413 98 508 293 55
112 72 181 79 320 10 221 -51 406 -176 531 -75 76 -140 112 -249 140 -69 18
-201 24 -257 13z m227 -144 c151 -46 247 -195 267 -413 10 -101 0 -241 -23
-316 -64 -215 -233 -328 -437 -291 -155 28 -257 135 -306 320 -23 88 -23 300
0 393 40 162 140 279 267 313 68 19 160 16 232 -6z"/>
<path d="M15012 2258 l3 -623 175 -3 c405 -7 554 29 687 164 66 68 119 163
149 269 25 91 30 296 10 388 -47 208 -174 350 -360 401 -61 16 -115 20 -369
24 l-297 4 2 -624z m494 481 c186 -26 281 -104 336 -280 30 -95 32 -278 4
-378 -37 -137 -112 -239 -207 -280 -56 -25 -187 -41 -336 -41 l-113 0 0 495 0
495 119 0 c66 0 154 -5 197 -11z"/>
<path d="M18192 2258 l3 -623 85 0 85 0 3 263 2 262 83 0 82 0 178 -265 178
-265 105 0 c81 0 104 3 98 13 -4 6 -94 134 -199 282 -105 149 -195 275 -199
282 -4 8 10 21 42 37 27 14 72 50 100 80 113 124 130 303 41 432 -71 103 -148
124 -467 124 l-222 0 2 -622z m469 461 c106 -59 129 -196 52 -312 -52 -77
-110 -103 -255 -114 l-88 -6 0 233 0 233 123 -5 c107 -4 130 -8 168 -29z"/>
<path d="M19282 2258 l3 -623 85 0 85 0 3 623 2 622 -90 0 -90 0 2 -622z"/>
<path d="M21670 2255 l0 -628 273 6 c232 5 284 8 352 26 101 27 171 69 246
148 101 108 155 252 165 438 17 304 -123 535 -366 606 -68 20 -103 22 -372 26
l-298 5 0 -627z m497 485 c235 -32 353 -190 353 -475 0 -129 -15 -199 -65
-302 -47 -95 -105 -146 -198 -175 -59 -18 -97 -21 -241 -22 l-171 -1 -3 493
-2 492 124 0 c69 0 160 -5 203 -10z"/>
<path d="M22960 2255 l0 -625 365 0 365 0 0 65 0 65 -275 0 -275 0 0 230 0
230 215 0 215 0 0 65 0 65 -215 0 -215 0 0 200 0 200 260 0 260 0 0 65 0 65
-350 0 -350 0 0 -625z"/>
<path d="M24488 2273 c-3 -598 -3 -609 -25 -655 -43 -94 -115 -112 -300 -72
l-33 7 0 -75 0 -75 38 -7 c108 -17 255 -1 327 37 41 21 99 83 123 132 39 77
42 138 42 737 l0 578 -84 0 -85 0 -3 -607z"/>
<path d="M25326 2872 c-11 -18 -486 -1222 -486 -1232 0 -7 29 -10 77 -8 l78 3
68 173 69 172 266 -2 267 -3 66 -170 67 -170 91 -3 c69 -2 91 0 91 10 0 7
-108 288 -239 623 l-239 610 -85 3 c-47 1 -88 -1 -91 -6z m179 -492 c54 -135
99 -251 102 -257 4 -10 -41 -13 -206 -13 -116 0 -211 3 -211 8 -1 20 205 521
211 515 4 -5 51 -118 104 -253z"/>
<path d="M26170 2255 l0 -625 75 0 75 0 2 482 3 482 314 -482 314 -482 83 0
84 0 0 625 0 625 -75 0 -75 0 -2 -478 -3 -479 -310 478 -310 478 -87 1 -88 0
0 -625z"/>
<path d="M27450 2255 l0 -625 363 2 362 3 3 63 3 62 -281 0 -280 0 0 230 0
230 220 0 220 0 0 65 0 65 -220 0 -220 0 0 200 0 200 260 0 260 0 0 65 0 65
-345 0 -345 0 0 -625z"/>
<path d="M28380 2255 l0 -625 85 0 85 0 0 625 0 625 -85 0 -85 0 0 -625z"/>
<path d="M28880 2255 l0 -625 85 0 85 0 0 265 0 265 85 0 84 0 178 -262 178
-263 104 -3 c85 -2 102 0 98 11 -3 8 -93 138 -201 289 -108 152 -196 278 -196
281 0 3 24 18 53 35 111 63 179 173 185 304 9 172 -79 287 -242 317 -33 6
-158 11 -278 11 l-218 0 0 -625z m410 484 c102 -23 154 -88 153 -190 -1 -106
-66 -201 -160 -233 -26 -9 -90 -19 -140 -23 l-93 -6 0 231 0 232 98 0 c53 0
117 -5 142 -11z"/>
</g>
</svg>
